<?xml version="1.0" standalone="no"?>
<!DOCTYPE svg PUBLIC "-//W3C//DTD SVG 20010904//EN"
 "http://www.w3.org/TR/2001/REC-SVG-20010904/DTD/svg10.dtd">
<svg version="1.0" xmlns="http://www.w3.org/2000/svg"
 width="2560.000000pt" height="1598.000000pt" viewBox="0 0 2560.000000 1598.000000"
 preserveAspectRatio="xMidYMid meet">

<g transform="translate(0.000000,1598.000000) scale(0.100000,-0.100000)"
fill="#000000" stroke="none">
<path d="M8452 8153 c-7 -2 -16 -12 -21 -22 -5 -9 -91 -450 -191 -980 -172
-915 -180 -964 -164 -982 17 -18 50 -19 1091 -19 721 0 1081 3 1094 10 10 6
19 21 19 33 0 13 -25 155 -55 317 -31 162 -85 448 -120 635 -35 187 -80 426
-100 530 -20 105 -47 249 -60 320 -19 103 -29 134 -46 148 -20 16 -69 17 -728
16 -388 0 -712 -3 -719 -6z"/>
<path d="M21260 8098 c0 -4 -12 -8 -27 -8 -14 0 -24 -3 -20 -6 9 -9 128 7 122
16 -6 10 -75 9 -75 -2z"/>
<path d="M21023 8093 c-46 -2 -83 -8 -83 -12 0 -5 -18 -7 -40 -4 -22 3 -40 2
-40 -4 0 -5 -17 -8 -37 -7 -21 0 -65 -3 -98 -8 -33 -5 -73 -9 -90 -9 -16 0
-39 -6 -51 -14 -16 -10 -24 -11 -26 -3 -3 7 -11 9 -24 3 -17 -7 -14 -10 18
-24 45 -19 47 -25 11 -28 -20 -1 -23 1 -12 9 14 9 5 8 -66 -7 -11 -3 -14 -2
-7 1 6 3 9 10 6 15 -3 6 6 8 23 4 l28 -5 -30 14 c-25 12 -31 12 -33 1 -4 -17
-21 -23 -84 -29 l-53 -5 58 11 c31 5 57 15 57 20 0 6 -8 7 -17 3 -31 -12 -117
-27 -150 -26 -18 0 -35 -4 -38 -9 -4 -6 -11 -8 -16 -5 -5 4 -9 -8 -9 -25 0
-18 4 -29 10 -25 6 3 10 1 10 -4 0 -6 -4 -11 -10 -11 -7 0 -9 -181 -8 -527 2
-431 4 -484 9 -288 4 186 5 152 4 -155 -2 -217 -6 -404 -10 -415 -7 -20 -7
-20 9 0 9 11 14 25 11 33 -2 7 -1 11 4 8 8 -5 30 15 45 41 5 8 2 11 -7 7 -11
-4 -13 1 -9 21 4 21 9 25 29 23 20 -2 29 5 48 38 l23 42 -21 23 c-18 19 -18
22 -3 16 9 -4 27 -2 39 4 21 9 21 9 3 -5 -10 -8 -15 -20 -11 -27 6 -8 12 -3
22 15 8 14 11 32 7 38 -5 7 -3 8 5 4 15 -10 42 23 36 43 -4 9 0 11 10 7 9 -3
15 0 15 8 0 8 6 16 13 19 9 3 9 10 -2 30 -8 15 -12 30 -9 33 4 3 9 -4 13 -15
7 -24 25 -28 25 -7 0 8 4 16 8 18 5 2 28 30 53 63 24 33 46 62 50 65 3 3 20
28 39 55 19 28 36 52 40 55 3 3 21 29 40 58 18 28 37 52 41 52 4 0 9 7 12 14
4 11 1 13 -10 9 -11 -4 -14 -2 -11 8 3 8 15 13 27 11 20 -2 21 -1 7 14 -9 8
-15 30 -15 47 l2 32 6 -34 c3 -19 12 -36 19 -39 15 -5 16 20 0 36 -9 9 -9 12
0 12 7 0 12 -4 12 -10 0 -5 5 -10 11 -10 6 0 9 9 6 20 -4 15 -1 20 11 18 11
-2 16 3 16 14 -1 10 2 16 6 13 7 -4 30 17 44 42 4 8 2 11 -7 8 -10 -4 -12 3
-9 30 4 30 1 35 -17 35 -12 0 -21 5 -21 10 0 6 9 10 20 10 11 0 20 -5 20 -11
0 -6 10 -9 23 -7 12 2 21 9 20 15 -2 7 4 10 12 7 13 -5 13 -8 0 -21 -14 -13
-20 -33 -11 -33 6 0 56 79 56 90 0 19 -18 10 -24 -12 -5 -22 -6 -22 -20 -3
-21 28 -20 34 7 27 20 -5 21 -4 8 11 -17 22 -3 22 20 1 18 -16 39 -12 39 7 0
6 -5 7 -12 3 -7 -4 -8 -3 -4 5 4 6 12 8 18 5 8 -5 9 -1 5 10 -4 11 -3 15 4 11
13 -9 40 26 34 44 -4 9 0 11 10 7 9 -3 15 0 15 9 0 8 5 15 11 15 6 0 8 9 3 23
-14 44 -14 52 -3 30 7 -13 16 -23 21 -23 11 0 10 14 -3 27 -8 8 -6 19 7 42 19
31 29 38 38 23 3 -5 -4 -16 -15 -25 -19 -17 -26 -37 -11 -37 7 1 94 116 161
215 19 27 39 54 45 58 6 5 2 6 -9 2 -42 -15 -196 -38 -177 -26 7 4 -44 6 -115
3 -70 -2 -126 -2 -123 1 3 3 48 7 100 8 52 2 109 6 125 10 33 7 1 8 -152 2z
m274 -50 c1 -19 -1 -22 -8 -12 -11 17 -12 39 -1 39 4 0 8 -12 9 -27z m-577 -3
c0 -5 -5 -10 -11 -10 -5 0 -7 5 -4 10 3 6 8 10 11 10 2 0 4 -4 4 -10z m-83 -6
c-3 -3 -12 -4 -19 -1 -8 3 -5 6 6 6 11 1 17 -2 13 -5z m62 -25 c13 -11 21 -22
18 -25 -3 -4 -13 1 -22 10 -18 18 -55 22 -55 6 0 -5 5 -10 12 -10 6 0 9 -3 5
-6 -3 -3 -14 -1 -24 5 -10 6 -13 11 -8 12 6 1 -3 5 -20 9 -29 8 -29 8 7 7 21
-1 40 2 44 6 11 10 16 8 43 -14z m534 -41 c4 -10 8 -9 16 2 5 8 13 11 17 7 5
-4 -2 -17 -14 -29 -19 -19 -22 -20 -22 -5 0 9 -4 17 -10 17 -5 0 -10 5 -10 10
0 14 17 12 23 -2z m-21 -70 c-9 -9 -12 -4 -11 23 0 32 1 33 11 11 8 -17 8 -26
0 -34z m-62 -8 c0 -5 -4 -10 -10 -10 -5 0 -10 5 -10 10 0 6 5 10 10 10 6 0 10
-4 10 -10z m-75 -161 c11 -17 -1 -21 -15 -4 -8 9 -8 15 -2 15 6 0 14 -5 17
-11z m-838 -271 c-2 -24 -4 -5 -4 42 0 47 2 66 4 43 2 -24 2 -62 0 -85z m673
18 c0 -3 -4 -8 -10 -11 -5 -3 -10 -1 -10 4 0 6 5 11 10 11 6 0 10 -2 10 -4z
m-150 -146 c0 -5 -4 -10 -10 -10 -5 0 -10 5 -10 10 0 6 5 10 10 10 6 0 10 -4
10 -10z m-33 -32 c-3 -8 -6 -5 -6 6 -1 11 2 17 5 13 3 -3 4 -12 1 -19z m34
-21 c-8 -8 -11 -7 -11 4 0 20 13 34 18 19 3 -7 -1 -17 -7 -23z m-18 -18 c4 -3
2 -11 -5 -17 -10 -8 -13 -5 -14 15 -1 13 1 21 5 16 3 -4 10 -10 14 -14z m-83
-114 c0 -5 -5 -3 -10 5 -5 8 -10 20 -10 25 0 6 5 3 10 -5 5 -8 10 -19 10 -25z
m-67 -57 c4 -10 8 -9 16 2 5 8 13 11 17 7 5 -4 -2 -17 -14 -29 -19 -19 -22
-20 -22 -5 0 9 -4 17 -10 17 -5 0 -10 5 -10 10 0 14 17 12 23 -2z m-83 -78 c0
-5 -4 -10 -10 -10 -5 0 -10 5 -10 10 0 6 5 10 10 10 6 0 10 -4 10 -10z m44 -8
c3 -5 -3 -15 -13 -24 -10 -9 -21 -22 -23 -29 -3 -8 -9 -11 -13 -7 -8 7 25 68
37 68 4 0 9 -4 12 -8z m-116 -160 c2 -7 -2 -10 -12 -6 -10 4 -16 1 -16 -7 0
-7 -2 -10 -5 -7 -3 3 -3 13 1 22 7 18 25 17 32 -2z m-92 -102 c8 0 14 -4 14
-10 0 -5 -7 -10 -15 -10 -8 0 -15 2 -15 4 0 2 -2 10 -3 18 -2 7 -2 10 0 6 3
-5 11 -8 19 -8z m-3 -49 c-4 -3 -11 -10 -15 -15 -4 -4 -6 1 -5 12 1 12 6 18
15 15 7 -3 10 -9 5 -12z m-63 -11 c0 -13 -7 -20 -20 -20 -13 0 -20 7 -20 20 0
13 7 20 20 20 13 0 20 -7 20 -20z m-10 -84 c0 -3 -4 -8 -10 -11 -5 -3 -10 -1
-10 4 0 6 5 11 10 11 6 0 10 -2 10 -4z"/>
<path d="M20083 7947 c-32 -12 -32 -12 -9 -23 12 -6 31 -7 42 -3 16 6 14 8
-11 9 -22 2 -24 4 -10 7 22 5 46 24 30 22 -6 0 -24 -6 -42 -12z"/>
<path d="M19960 7914 c0 -8 -7 -14 -16 -14 -8 0 -12 5 -9 10 3 6 1 10 -4 10
-6 0 -11 -3 -11 -7 0 -5 -17 -9 -37 -10 -20 -1 -39 -6 -42 -11 -3 -5 -19 -12
-36 -14 -16 -3 -43 -11 -60 -16 -16 -6 -58 -16 -92 -23 -35 -6 -60 -15 -58
-19 7 -11 -21 -20 -61 -20 -19 0 -34 -4 -34 -9 0 -5 -8 -12 -17 -14 -10 -2 -7
-2 7 0 14 2 44 5 67 7 35 2 39 1 27 -11 -10 -11 -18 -11 -34 -3 -13 7 -26 7
-37 2 -13 -8 -7 -11 26 -17 23 -4 40 -9 37 -12 -3 -3 -29 0 -58 6 -29 7 -64
14 -78 17 l-25 4 25 -15 c14 -8 20 -14 15 -15 -6 0 -21 7 -33 16 -15 10 -22
11 -22 3 0 -6 -8 -9 -19 -6 -23 6 -54 -11 -45 -25 4 -6 -1 -17 -11 -25 -11 -7
-13 -13 -6 -13 7 0 20 -8 29 -17 16 -15 15 -16 -11 -9 l-27 6 1 -62 c0 -47 3
-58 10 -43 6 15 8 5 7 -35 -2 -94 2 -148 11 -125 5 12 8 -10 7 -55 0 -41 3
-86 7 -100 6 -21 6 -22 -3 -5 -9 17 -10 14 -5 -13 2 -18 8 -76 11 -130 4 -53
11 -103 16 -109 6 -7 7 -29 4 -49 -9 -43 3 -146 15 -139 10 7 23 -56 16 -82
-3 -10 -5 -1 -6 20 0 20 -5 37 -10 37 -9 0 -4 -81 8 -120 5 -14 7 -41 5 -60
l-3 -35 9 30 c5 19 6 -5 3 -69 -5 -78 -3 -97 7 -91 8 5 10 21 7 44 -2 20 -1
74 3 121 6 69 7 54 6 -82 -1 -92 -4 -159 -9 -150 -4 9 -5 1 -1 -18 3 -19 7
-91 10 -160 3 -73 9 -127 15 -131 7 -4 10 -25 7 -47 -2 -22 0 -38 3 -36 4 2 7
-49 8 -113 0 -64 5 -119 10 -122 5 -4 10 -44 11 -91 1 -47 1 -96 2 -108 l0
-24 29 28 c16 15 29 32 29 37 0 9 50 77 77 105 7 8 18 22 23 33 8 15 7 17 -4
13 -11 -4 -13 0 -9 15 4 14 13 21 30 21 30 0 26 24 -5 28 -15 2 -22 -2 -22
-12 0 -9 -8 -16 -20 -16 -11 0 -20 7 -20 15 0 8 9 15 20 15 11 0 20 4 20 9 0
5 10 11 23 13 17 2 22 9 20 31 -1 21 2 27 12 23 9 -3 12 0 8 10 -7 19 11 18
27 -1 9 -10 9 -15 1 -15 -6 0 -11 -6 -11 -14 0 -8 -10 -22 -22 -30 -16 -11
-19 -19 -11 -27 7 -7 21 4 47 40 38 53 44 67 24 55 -7 -4 -8 -3 -4 5 4 6 12 8
18 5 8 -5 9 -1 5 10 -4 11 -3 15 4 11 13 -9 40 26 34 44 -3 8 0 11 9 8 20 -8
44 39 28 55 -7 7 -12 17 -12 22 0 6 7 2 15 -8 19 -26 33 -11 16 16 -11 18 -11
23 3 33 9 7 16 17 16 24 0 6 5 11 10 11 14 0 13 -7 -6 -36 -9 -13 -14 -27 -10
-31 3 -3 8 -4 9 -2 2 2 24 31 48 64 24 33 46 62 50 65 3 3 20 28 39 55 19 28
36 52 39 55 3 3 17 20 30 39 23 33 23 38 25 280 2 153 -1 225 -6 191 -4 -30
-6 -86 -3 -125 l4 -70 -9 55 c-5 33 -5 109 0 190 6 74 9 342 8 595 -1 253 -5
420 -8 370 l-6 -90 -2 81 c-2 92 -9 100 -94 108 -37 4 -48 1 -48 -10z m103
-11 c-7 -2 -21 -2 -30 0 -10 3 -4 5 12 5 17 0 24 -2 18 -5z m-228 -53 c1 -19
-14 -30 -40 -29 -16 1 -16 2 5 9 l25 8 -25 1 c-15 1 -31 -4 -37 -10 -8 -8 -13
-8 -17 0 -4 6 0 11 9 11 9 0 13 5 10 10 -4 7 3 9 22 5 22 -5 25 -4 13 5 -12 9
-10 10 10 8 14 -2 25 -10 25 -18z m-121 -18 c2 -4 -14 -8 -37 -8 -30 -1 -36 1
-22 7 26 10 53 11 59 1z m373 -154 c-2 -13 -4 -3 -4 22 0 25 2 35 4 23 2 -13
2 -33 0 -45z m-727 16 c0 -8 -5 -12 -10 -9 -6 4 -8 11 -5 16 9 14 15 11 15 -7z
m-33 -81 c-3 -10 -5 -2 -5 17 0 19 2 27 5 18 2 -10 2 -26 0 -35z m780 -15 c-2
-13 -4 -3 -4 22 0 25 2 35 4 23 2 -13 2 -33 0 -45z m-754 -115 c-8 -51 -9 -44
-9 57 0 101 1 108 9 58 4 -32 4 -84 0 -115z m734 -205 c-1 -57 -3 -11 -3 102
0 113 2 159 3 103 2 -57 2 -149 0 -205z m6 -534 c2 -192 6 -354 9 -359 3 -6 1
-15 -6 -21 -8 -7 -12 84 -14 365 -2 207 -1 373 2 370 4 -4 8 -163 9 -355z
m-671 249 c0 -16 1 -53 0 -83 0 -53 0 -53 7 -15 5 25 6 -2 4 -70 -2 -60 -7
-126 -12 -145 -12 -47 -13 -6 -1 45 5 23 5 58 0 85 -13 64 -18 210 -8 210 4 0
9 -12 10 -27z m-23 -108 c0 -26 -2 -27 -9 -10 -5 11 -9 31 -9 45 -1 20 1 22 9
10 5 -8 9 -28 9 -45z m718 -407 c-2 -13 -4 -3 -4 22 0 25 2 35 4 23 2 -13 2
-33 0 -45z m-90 -190 c2 6 10 12 16 12 6 0 1 -10 -10 -22 -11 -13 -23 -30 -25
-38 -3 -8 -5 2 -5 22 1 25 4 33 10 25 7 -9 10 -9 14 1z m-74 -80 c4 -10 8 -9
16 2 5 8 13 11 17 7 5 -4 -2 -17 -14 -29 -19 -19 -22 -20 -22 -5 0 9 -4 17
-10 17 -5 0 -10 5 -10 10 0 14 17 12 23 -2z m-97 -96 c-17 -16 -18 -16 -5 5 7
12 15 20 18 17 3 -2 -3 -12 -13 -22z m-361 -107 c4 -31 5 -73 1 -95 -3 -23 -2
-41 4 -45 6 -4 8 -26 4 -56 -4 -27 -3 -49 2 -49 5 0 8 -34 6 -75 -2 -41 0 -75
4 -75 5 0 19 12 31 28 l23 27 -16 -40 c-9 -22 -22 -48 -29 -59 -12 -16 -14
-14 -19 25 -11 90 -18 197 -20 309 -1 63 -6 125 -10 138 -4 13 -3 22 3 22 5 0
13 -25 16 -55z m22 23 c-3 -7 -5 -2 -5 12 0 14 2 19 5 13 2 -7 2 -19 0 -25z
m281 -66 c2 -7 -2 -10 -12 -6 -10 4 -16 1 -16 -7 0 -7 -2 -10 -5 -7 -3 3 -3
13 1 22 7 18 25 17 32 -2z m-281 -84 c-3 -8 -6 -5 -6 6 -1 11 2 17 5 13 3 -3
4 -12 1 -19z m113 -167 c0 -5 -7 -11 -14 -14 -10 -4 -13 -1 -9 9 6 15 23 19
23 5z"/>
<path d="M19558 7813 c7 -3 16 -2 19 1 4 3 -2 6 -13 5 -11 0 -14 -3 -6 -6z"/>
<path d="M19307 7733 c-4 -3 -7 -11 -7 -17 0 -6 5 -5 12 2 6 6 9 14 7 17 -3 3
-9 2 -12 -2z"/>
<path d="M19185 7693 c-11 -3 -28 -12 -37 -20 -9 -8 -21 -12 -27 -9 -5 3 -11
3 -13 -1 -1 -5 -36 -19 -75 -32 -43 -14 -73 -30 -73 -38 0 -7 -8 -13 -17 -13
-16 0 -16 2 -3 11 12 9 11 9 -5 4 -11 -4 -28 -10 -37 -12 -10 -3 -18 -9 -18
-13 0 -5 -8 -11 -17 -13 -17 -4 -17 -5 0 -6 30 -2 18 -16 -16 -18 -23 -2 -28
0 -17 7 21 13 6 12 -25 -2 -18 -8 -22 -14 -13 -20 19 -12 35 -9 18 3 -11 8 -9
9 10 3 51 -14 48 -19 -10 -20 -34 0 -55 3 -48 8 32 20 -7 5 -67 -26 -36 -19
-69 -35 -73 -35 -19 -1 -70 -36 -65 -45 4 -5 -1 -7 -13 -3 -18 7 -18 6 -1 -7
25 -19 21 -31 -5 -14 -21 13 -28 13 -67 -4 -24 -10 -41 -21 -38 -24 3 -3 14
-1 26 5 12 7 22 7 26 2 7 -13 -4 -17 -40 -16 -31 2 -91 -22 -81 -32 3 -3 12 0
21 7 11 9 15 9 15 1 0 -6 -7 -14 -15 -17 -8 -4 -15 -13 -15 -21 0 -12 3 -13
13 -4 11 9 14 5 14 -22 1 -27 0 -29 -8 -12 -6 14 -8 7 -4 -25 13 -126 18 -150
30 -150 16 0 30 -87 21 -127 -4 -15 3 -81 14 -147 11 -65 20 -131 20 -147 0
-28 2 -29 44 -29 l43 0 -1 -144 c0 -79 -4 -142 -8 -140 -4 3 -6 33 -3 67 2 34
2 53 -1 42 -10 -34 -24 -41 -24 -12 0 15 5 27 10 27 6 0 10 19 9 43 l-1 42
-13 -40 -13 -40 -1 38 c-1 20 -6 37 -12 37 -6 0 -8 -8 -5 -17 6 -21 52 -298
66 -398 5 -38 16 -106 24 -150 20 -111 46 -268 57 -340 4 -33 15 -96 22 -140
8 -44 26 -154 41 -245 14 -91 32 -194 40 -230 7 -36 19 -108 26 -160 7 -52 17
-105 22 -117 6 -12 8 -29 5 -37 -3 -8 -2 -18 3 -21 6 -4 10 -29 10 -57 l0 -52
21 23 c17 18 19 25 9 31 -8 5 -10 15 -5 26 7 18 7 18 14 0 9 -22 8 -23 76 72
25 35 43 68 39 74 -4 6 -3 8 3 5 10 -6 31 12 47 40 5 8 2 11 -7 7 -11 -4 -13
1 -9 21 3 20 10 25 26 23 14 -2 30 8 48 32 30 39 34 55 16 64 -7 3 -3 3 9 1
16 -4 27 2 43 25 21 30 21 60 0 60 -7 0 -9 -9 -5 -22 5 -19 4 -20 -5 -6 -10
17 -4 48 10 48 4 0 10 -7 14 -15 3 -8 10 -15 17 -15 6 0 8 7 5 16 -4 11 -2 15
8 11 20 -8 44 39 28 55 -7 7 -12 19 -11 27 0 11 4 8 11 -6 12 -26 28 -30 28
-9 0 8 4 16 8 18 5 2 42 49 83 104 l74 102 -7 83 c-4 46 -10 134 -15 194 -7
103 -8 106 -13 50 -3 -33 -6 15 -6 107 -1 115 -5 172 -13 182 -7 9 -11 33 -8
58 2 24 2 33 0 21 -2 -13 -9 -23 -15 -23 -6 0 -8 12 -4 30 14 66 17 96 8 75
-7 -15 -11 -3 -16 48 -4 38 -5 71 -2 74 3 4 6 -10 6 -30 0 -21 4 -37 9 -37 10
0 9 8 -9 137 -5 39 -10 103 -10 142 0 40 -5 73 -11 77 -6 3 -9 17 -6 31 2 13
-2 100 -10 191 -8 92 -15 183 -16 202 -2 19 -5 40 -9 45 -3 6 -6 47 -7 92 0
45 -6 126 -11 180 -8 77 -24 257 -32 371 -1 6 -2 11 -2 11 -1 -1 -10 -4 -21
-6z m9 -22 c4 -5 -3 -7 -14 -4 -23 6 -26 13 -6 13 8 0 17 -4 20 -9z m-74 -41
c0 -13 -11 -13 -30 0 -12 8 -11 10 8 10 12 0 22 -4 22 -10z m-85 -19 c-6 -5
-23 -13 -40 -16 l-30 -7 25 15 c28 17 59 22 45 8z m172 -23 c-3 -7 -5 -2 -5
12 0 14 2 19 5 13 2 -7 2 -19 0 -25z m-99 15 c-10 -2 -28 -2 -40 0 -13 2 -5 4
17 4 22 1 32 -1 23 -4z m5 -20 c-7 -2 -19 -2 -25 0 -7 3 -2 5 12 5 14 0 19 -2
13 -5z m94 -70 c-3 -10 -5 -2 -5 17 0 19 2 27 5 18 2 -10 2 -26 0 -35z m-499
-63 c8 0 13 -2 10 -5 -3 -4 -18 -3 -33 1 -20 5 -23 9 -13 15 7 5 14 4 16 -1 2
-6 11 -10 20 -10z m-42 -22 c3 -5 -7 -6 -21 -4 -37 7 -42 14 -10 14 14 0 28
-5 31 -10z m566 -258 c0 -80 4 -147 8 -150 10 -8 20 -80 10 -80 -17 0 -30 122
-30 300 -1 75 -4 99 -11 85 -8 -18 -9 -17 -4 5 2 14 5 39 6 55 4 81 19 -85 21
-215z m-703 199 c24 -9 29 -14 19 -20 -7 -5 -22 -8 -33 -8 l-20 0 20 9 c16 7
17 9 3 9 -9 1 -20 6 -23 11 -8 13 -5 13 34 -1z m678 -281 c-3 -7 -5 -2 -5 12
0 14 2 19 5 13 2 -7 2 -19 0 -25z m-737 -104 c-13 -95 -13 -134 1 -114 9 12
10 12 5 -3 -3 -10 -6 -28 -7 -40 0 -12 -7 5 -15 37 -10 42 -12 69 -5 90 5 17
12 48 16 70 11 66 16 32 5 -40z m747 -26 c-2 -13 -4 -5 -4 17 -1 22 1 32 4 23
2 -10 2 -28 0 -40z m-740 -210 c-3 -7 -5 -2 -5 12 0 14 2 19 5 13 2 -7 2 -19
0 -25z m810 -120 c-3 -7 -5 -2 -5 12 0 14 2 19 5 13 2 -7 2 -19 0 -25z m10
-160 c-3 -8 -6 -5 -6 6 -1 11 2 17 5 13 3 -3 4 -12 1 -19z m0 -80 c-3 -7 -5
-2 -5 12 0 14 2 19 5 13 2 -7 2 -19 0 -25z m8 -174 c0 -121 -13 -124 -16 -4
-1 45 9 130 15 130 0 0 1 -56 1 -126z m-748 49 c-3 -10 -5 -2 -5 17 0 19 2 27
5 18 2 -10 2 -26 0 -35z m743 -203 c11 -8 22 -80 12 -80 -9 0 -15 24 -27 95
-2 17 -2 21 2 10 3 -11 9 -22 13 -25z m-673 -37 c-3 -10 -5 -4 -5 12 0 17 2
24 5 18 2 -7 2 -21 0 -30z m-7 -88 c1 -30 3 -35 9 -20 6 14 8 5 7 -27 -1 -28
-5 -43 -10 -38 -10 10 -35 133 -35 170 0 22 2 21 14 -10 7 -19 14 -53 15 -75z
m17 13 c-3 -7 -5 -2 -5 12 0 14 2 19 5 13 2 -7 2 -19 0 -25z m0 -175 c-3 -10
-5 -2 -5 17 0 19 2 27 5 18 2 -10 2 -26 0 -35z m741 -185 c0 -13 2 -57 5 -98
3 -41 4 -64 1 -50 -2 14 -9 50 -14 81 -6 31 -8 64 -4 73 9 23 14 20 12 -6z
m-678 -129 c5 -36 13 -75 16 -85 4 -10 4 -16 0 -12 -12 11 -46 151 -45 188 l1
35 9 -30 c5 -16 14 -60 19 -96z m18 21 l0 -25 -8 25 c-4 14 -8 43 -8 65 l0 40
9 -40 c4 -22 8 -51 7 -65z m665 -101 c-7 -7 -12 -3 -15 16 -5 25 -4 25 10 11
12 -11 13 -19 5 -27z m-666 -101 c-2 -13 -4 -3 -4 22 0 25 2 35 4 23 2 -13 2
-33 0 -45z m597 50 c5 -10 7 -10 12 0 6 13 24 17 24 5 -1 -5 -15 -24 -33 -44
l-32 -36 -2 31 c-2 22 0 27 7 16 5 -8 12 -11 17 -7 4 4 2 17 -5 27 -7 11 -8
20 -3 20 5 0 12 -6 15 -12z m-95 -100 c-8 -14 -14 -18 -17 -10 -4 13 17 46 25
38 3 -2 -1 -15 -8 -28z m55 13 c3 -5 -1 -11 -9 -15 -9 -3 -15 0 -15 9 0 16 16
20 24 6z m-517 -203 c-2 -13 -4 -3 -4 22 0 25 2 35 4 23 2 -13 2 -33 0 -45z
m30 30 c-3 -7 -5 -2 -5 12 0 14 2 19 5 13 2 -7 2 -19 0 -25z m10 -103 c-1 -41
-5 -75 -8 -75 -8 0 -19 65 -18 105 0 26 2 27 9 10 8 -18 9 -17 9 8 1 15 3 27
5 27 2 0 3 -34 3 -75z m272 9 c3 -16 1 -17 -13 -5 -19 16 -21 34 -3 29 6 -3
14 -13 16 -24z m-69 -54 c0 -13 -7 -20 -20 -20 -13 0 -20 7 -20 20 0 13 7 20
20 20 13 0 20 -7 20 -20z m-203 -92 c-3 -7 -5 -2 -5 12 0 14 2 19 5 13 2 -7 2
-19 0 -25z m182 18 c7 -8 8 -17 3 -20 -6 -3 -12 3 -15 14 -6 24 -4 25 12 6z
m-49 -73 c-1 -15 -30 -46 -37 -40 -3 4 2 16 12 27 19 21 25 24 25 13z"/>
<path d="M14760 7669 c0 -6 25 -47 55 -90 48 -68 53 -79 35 -79 -11 0 -37 7
-57 15 -51 21 -55 20 -48 -22 7 -44 38 -108 68 -140 28 -31 17 -37 -28 -19
l-37 16 7 -96 c15 -200 71 -376 150 -469 l25 -30 -10 29 c-6 16 -9 35 -6 43 9
24 56 14 88 -18 28 -28 30 -28 24 -7 -3 13 -9 64 -12 114 l-7 91 109 7 c126 7
216 29 329 80 44 20 90 36 102 36 32 0 50 -34 63 -125 12 -78 30 -123 30 -76
0 14 15 37 37 57 l36 33 -7 128 c-7 138 -25 231 -55 292 -66 128 -273 203
-644 231 -174 13 -247 13 -247 -1z"/>
<path d="M18237 7254 c-3 -3 -4 -11 -3 -17 2 -7 1 -9 -1 -4 -6 10 -23 9 -23
-1 0 -5 8 -19 19 -31 13 -15 21 -45 26 -97 4 -41 4 -78 1 -81 -3 -4 -7 14 -8
38 -1 24 -5 -68 -8 -206 l-6 -250 -2 291 c-2 245 -4 294 -17 304 -12 10 -15
10 -15 -4 0 -9 5 -16 10 -16 7 0 9 -96 8 -282 l-3 -283 -1280 -5 -1280 -5 -17
-55 c-10 -30 -25 -70 -34 -87 -15 -30 -16 -40 -3 -100 13 -64 17 -70 61 -100
26 -17 53 -33 60 -36 10 -3 9 -15 -5 -53 -42 -116 -130 -224 -216 -266 -67
-33 -187 -33 -256 2 -66 32 -136 98 -185 176 -39 62 -76 142 -69 147 2 2 35
16 72 32 75 31 90 47 108 117 13 46 12 49 -12 75 -14 16 -47 56 -73 91 l-48
63 -641 -3 -642 -3 -80 -28 c-178 -62 -305 -196 -359 -377 -14 -48 -17 -171
-22 -1030 -3 -536 -5 -979 -5 -985 1 -7 -181 -9 -531 -7 -599 3 -647 -1 -771
-61 -40 -19 -89 -50 -110 -68 l-37 -34 15 -49 c19 -63 19 -90 -2 -133 -11 -24
-30 -41 -57 -54 -49 -22 -63 -13 -47 32 13 38 14 79 3 79 -10 0 -27 -35 -53
-107 l-18 -53 27 0 c173 -3 237 -9 252 -27 11 -13 26 -17 55 -15 102 6 147
-84 104 -210 -24 -72 -67 -136 -144 -217 -54 -55 -64 -72 -79 -131 l-18 -67
-236 4 c-295 5 -320 7 -327 36 -3 12 -4 74 -3 137 3 112 3 114 28 121 14 4
-64 7 -172 8 l-198 1 -6 -24 c-3 -13 -4 -81 -2 -150 l3 -126 -124 0 -124 0 6
-47 c3 -27 11 -78 17 -115 l12 -68 462 -2 c361 -2 461 -6 460 -15 -1 -7 -2
-398 -2 -868 l-2 -855 -920 0 -920 0 21 40 c25 48 19 87 -17 121 -23 21 -37
24 -125 27 -73 3 -99 7 -99 17 0 7 20 96 44 197 92 378 156 646 311 1306 5 22
5 22 -110 22 -63 0 -115 -2 -115 -4 0 -3 -48 -288 -106 -633 -58 -345 -115
-689 -127 -763 l-22 -135 -135 0 -135 0 -5 1069 c-4 843 -8 1070 -17 1074 -7
2 -14 18 -15 35 -1 18 -4 5 -8 -28 l-7 -60 -3 60 -3 60 -8 -60 c-5 -33 -12
-531 -15 -1107 l-7 -1048 -284 0 c-190 0 -292 -4 -306 -11 -58 -29 -75 -103
-36 -153 l20 -26 -473 0 c-260 0 -478 4 -484 8 -6 4 -10 17 -9 30 1 19 -3 22
-33 22 l-35 0 26 -24 c21 -19 23 -25 11 -30 -8 -3 -534 -6 -1169 -6 -647 0
-1164 -4 -1177 -9 -43 -16 -63 -49 -63 -102 0 -40 5 -54 28 -76 l27 -28 8751
0 8751 0 29 33 c40 45 40 99 0 144 l-29 33 -439 5 c-241 3 -954 5 -1586 5
-631 0 -1147 3 -1147 8 0 4 -12 7 -26 7 -14 0 -23 3 -20 8 2 4 -1 15 -8 24
-11 15 -37 18 -207 21 l-194 3 208 1 c115 1 206 -1 203 -4 -10 -10 26 -43 46
-43 10 0 36 12 57 26 47 31 54 56 50 198 -2 56 0 106 4 113 4 7 10 117 14 245
9 344 9 350 0 390 -5 24 -4 38 2 38 5 0 11 -10 13 -23 2 -12 3 71 3 185 0 113
3 201 7 195 4 -7 8 21 8 61 l0 73 -24 -24 c-24 -24 -40 -70 -41 -117 0 -23 -4
-25 -45 -26 -25 0 -37 1 -27 3 17 5 22 15 11 26 -3 3 -13 -2 -23 -11 -14 -15
-15 -19 -2 -28 12 -9 11 -14 -7 -32 -26 -26 -32 -27 -32 -7 0 8 5 15 10 15 6
0 10 5 10 12 0 6 -9 3 -20 -7 -11 -10 -20 -22 -20 -26 0 -4 -16 -25 -34 -46
-28 -30 -33 -40 -23 -52 10 -12 8 -14 -10 -9 -21 6 -23 2 -24 -30 0 -28 -2
-32 -8 -18 -6 15 -10 16 -15 7 -5 -7 -3 -24 4 -37 11 -19 10 -27 -4 -49 -17
-26 -31 -31 -41 -16 -3 5 4 12 15 16 21 7 30 55 10 55 -5 0 -10 -4 -10 -8 0
-5 -11 -22 -25 -38 -26 -31 -33 -50 -13 -38 9 6 -43 -67 -62 -86 -19 -19 -42
-112 -41 -160 2 -54 -7 -68 -11 -17 -3 30 -18 37 -18 9 0 -10 -3 -22 -7 -26
-8 -8 -43 -97 -43 -109 0 -5 5 -5 10 -2 6 3 10 1 10 -4 0 -6 -6 -11 -13 -11
-15 0 -37 -55 -37 -93 0 -14 -4 -28 -9 -31 -11 -7 -28 -80 -35 -151 -4 -34 -3
-44 3 -30 9 19 10 19 10 -2 1 -13 -5 -23 -13 -23 -22 0 -34 -154 -20 -243 l7
-37 221 -2 221 -3 -220 -2 c-126 -2 -224 -8 -229 -13 -6 -6 -160 -10 -403 -10
l-393 0 0 698 c-1 383 -1 989 -1 1346 0 491 3 651 12 660 9 8 10 4 5 -19 -6
-24 -5 -27 5 -18 17 17 19 65 2 59 -7 -3 -13 2 -13 12 -5 265 -3 2722 3 2722
4 0 6 -3 6 -7 -1 -5 -1 -617 0 -1360 1 -1077 4 -1352 14 -1350 7 1 11 -7 10
-20 -2 -13 -1 -23 1 -23 11 0 85 113 80 122 -4 6 -3 8 3 5 16 -10 46 29 47 60
1 21 6 28 19 27 11 -1 28 13 43 37 27 44 29 55 12 62 -10 4 -9 6 1 6 8 1 20 9
28 19 12 15 13 14 2 -8 -11 -23 -11 -24 5 -11 10 8 15 23 13 33 -3 10 -1 15 5
12 13 -8 39 27 33 45 -4 9 0 11 10 7 9 -3 15 0 15 8 0 8 6 16 13 19 9 3 9 10
-2 30 -8 15 -12 30 -9 33 4 3 9 -4 13 -15 7 -24 25 -28 25 -7 0 8 4 16 8 18 5
2 34 38 66 81 l57 78 -11 62 c-6 34 -14 79 -17 99 -3 21 -8 36 -13 33 -4 -2
-7 26 -8 63 0 37 -7 96 -15 132 -9 36 -19 95 -22 133 -4 37 -11 67 -16 67 -5
0 -9 24 -9 53 0 32 -4 47 -9 39 -5 -8 -8 14 -8 55 -1 37 -8 99 -17 136 -9 38
-16 87 -16 110 0 58 -10 87 -27 87 -12 0 -14 9 -10 48 5 35 4 41 -3 22 -7 -19
-9 -10 -6 35 3 33 -2 94 -10 135 -7 41 -19 112 -26 158 -8 55 -16 82 -25 82
-14 0 -18 46 -5 52 5 2 -2 64 -15 138 -13 74 -26 158 -29 185 -8 83 -13 95
-34 95 -11 0 -20 -4 -20 -10 0 -5 -9 -10 -20 -10 -11 0 -20 5 -20 10 0 6 9 10
20 10 18 0 20 7 20 55 0 30 -4 55 -10 55 -5 0 -10 -11 -10 -25 0 -14 -3 -25
-7 -25 -5 0 -8 25 -9 56 0 34 3 49 7 38 6 -15 8 -13 8 9 1 33 20 27 22 -6 1
-13 3 -16 5 -7 3 8 -7 82 -21 164 -14 82 -25 162 -25 177 0 15 -6 54 -14 86
-8 32 -20 91 -26 131 -11 66 -23 85 -43 66z m42 -134 c-1 -16 -6 -7 -15 25
-18 65 -17 91 1 40 8 -22 14 -51 14 -65z m7 -98 c-11 -10 -14 3 -7 38 l6 35 3
-33 c2 -19 1 -36 -2 -40z m41 -234 c-3 -7 -5 -2 -5 12 0 14 2 19 5 13 2 -7 2
-19 0 -25z m8 -88 c-4 -23 -9 -39 -11 -37 -3 2 -2 23 2 46 4 23 9 40 11 37 3
-3 2 -23 -2 -46z m-96 -139 c-1 -13 -2 -13 -6 2 -2 9 -11 17 -19 17 -8 0 -12
5 -9 10 9 15 35 -8 34 -29z m168 -258 c-3 -10 -5 -4 -5 12 0 17 2 24 5 18 2
-7 2 -21 0 -30z m16 -216 c-8 -34 -15 -63 -16 -64 -3 -2 -1 188 2 227 3 29 5
23 16 -33 10 -57 9 -79 -2 -130z m71 -347 c-7 -15 -9 -3 -10 42 0 63 0 63 9
20 6 -25 6 -50 1 -62z m17 -83 c-6 -6 -11 -27 -12 -46 0 -20 -4 -45 -9 -56 -8
-19 -9 -19 -9 -1 -1 11 4 49 10 84 9 51 14 61 21 48 7 -12 6 -22 -1 -29z m56
-309 c-3 -8 -6 -5 -6 6 -1 11 2 17 5 13 3 -3 4 -12 1 -19z m8 -86 c-4 -40 -2
-77 9 -116 9 -36 11 -66 6 -79 -6 -17 -9 -19 -13 -7 -10 28 -17 169 -10 215 9
66 16 55 8 -13z m-4455 4 c0 -34 133 -138 295 -230 28 -16 52 -30 54 -32 2 -2
-16 -29 -39 -61 -24 -32 -54 -72 -67 -89 l-23 -31 102 -36 c57 -20 110 -38
119 -42 12 -5 18 1 22 24 4 16 15 35 26 40 12 7 287 13 770 17 413 4 751 10
751 14 0 3 -11 34 -24 68 -14 34 -21 64 -17 67 5 2 41 16 82 31 94 34 231 97
268 123 38 28 48 26 54 -6 3 -16 31 -120 62 -233 73 -266 75 -289 40 -369 -34
-75 -65 -103 -147 -130 -92 -30 -218 -51 -218 -37 0 6 19 95 41 198 40 182 41
188 24 214 l-17 27 -822 -5 c-451 -3 -828 -8 -838 -12 -9 -4 -21 -19 -27 -34
-9 -22 -4 -49 28 -157 l38 -130 -116 -3 c-184 -5 -393 32 -509 90 -64 32 -138
116 -147 165 -12 71 40 222 156 455 56 114 79 144 79 104z m4544 -568 c-5 -49
-3 -58 10 -58 18 0 23 -54 6 -65 -6 -4 -10 5 -10 19 0 14 -5 26 -11 26 -8 0
-10 23 -5 78 4 55 3 71 -4 57 -8 -16 -9 -13 -5 14 3 18 6 45 6 60 1 15 5 4 10
-24 5 -27 6 -76 3 -107z m-17 -120 c-3 -8 -6 -5 -6 6 -1 11 2 17 5 13 3 -3 4
-12 1 -19z m58 -28 c3 -5 1 -10 -4 -10 -6 0 -11 5 -11 10 0 6 2 10 4 10 3 0 8
-4 11 -10z m-35 -100 c0 -5 -2 -10 -4 -10 -3 0 -8 5 -11 10 -3 6 -1 10 4 10 6
0 11 -4 11 -10z m40 7 c0 -2 -10 -12 -21 -23 -22 -19 -22 -19 -8 4 12 19 29
30 29 19z m-51 -60 c1 -5 -3 -5 -9 -2 -5 3 -10 16 -9 28 0 21 1 21 9 2 5 -11
9 -24 9 -28z m-3135 13 c18 -18 -3 -37 -48 -43 -25 -4 -51 -5 -58 -3 -7 3 -25
7 -40 10 -38 9 -35 33 5 45 35 11 127 5 141 -9z m3055 -62 c-8 -14 -14 -18
-17 -10 -4 13 17 46 25 38 3 -2 -1 -15 -8 -28z m55 13 c3 -5 -1 -11 -9 -15 -9
-3 -15 0 -15 9 0 16 16 20 24 6z m-3941 -40 c4 -4 19 -47 33 -97 14 -49 34
-96 43 -104 9 -8 17 -29 17 -45 l-1 -30 688 -3 c607 -2 688 0 693 13 4 8 1 22
-6 30 -10 13 -10 19 4 34 9 10 24 57 35 105 10 47 20 88 22 90 2 2 36 -1 74
-5 39 -5 194 -13 345 -18 373 -13 398 -21 460 -145 65 -129 27 -221 -136 -329
-85 -56 -354 -189 -438 -217 -202 -66 -693 -111 -1411 -130 -203 -5 -370 -10
-370 -10 0 0 1 -132 3 -292 3 -297 -5 -526 -35 -1010 l-17 -268 23 -41 c35
-62 26 -126 -39 -269 -55 -121 -71 -169 -90 -263 -10 -49 -20 -67 -58 -107
-30 -31 -61 -52 -87 -59 -51 -14 -140 -14 -167 0 -48 26 -63 143 -28 225 11
26 57 107 100 180 84 139 130 243 130 296 0 35 -17 94 -97 348 -30 96 -65 209
-78 250 -31 99 -169 588 -190 670 -31 124 -36 140 -43 140 -4 -1 -36 -28 -72
-62 -169 -160 -297 -212 -355 -148 -23 25 -30 124 -15 204 18 97 56 148 138
188 37 18 72 36 77 41 6 4 30 21 55 37 105 69 99 54 104 235 4 127 10 179 30
253 51 195 130 296 251 322 38 8 397 0 408 -9z m3825 -119 c2 -7 -2 -10 -12
-6 -10 4 -16 1 -16 -7 0 -7 -2 -10 -5 -7 -3 3 -3 13 1 22 7 18 25 17 32 -2z
m-280 -332 c-4 -8 -7 50 -6 130 l2 145 6 -130 c3 -71 2 -137 -2 -145z m188
214 c1 -16 -4 -34 -11 -40 -8 -8 -11 0 -11 32 1 49 20 55 22 8z m-86 -74 c-6
-11 -13 -20 -15 -20 -3 0 -5 9 -5 20 0 11 7 20 15 20 13 0 14 -4 5 -20z m10
-54 c0 -3 -4 -8 -10 -11 -5 -3 -10 -1 -10 4 0 6 5 11 10 11 6 0 10 -2 10 -4z
m-70 -81 c-7 -8 -17 -15 -23 -15 -6 0 -2 8 9 19 22 21 33 19 14 -4z m-9093
-517 c-2 -13 -4 -3 -4 22 0 25 2 35 4 23 2 -13 2 -33 0 -45z m10439 -840 c0
-35 2 -106 6 -158 3 -58 3 -74 -2 -40 -6 44 -7 36 -5 -45 1 -67 -1 -90 -6 -70
-5 17 -7 104 -5 195 4 181 4 180 10 180 2 0 3 -28 2 -62z m21 40 c-3 -8 -6 -5
-6 6 -1 11 2 17 5 13 3 -3 4 -12 1 -19z m-132 -167 c-3 -6 -14 -11 -23 -11
-13 0 -13 2 4 14 21 15 30 14 19 -3z m-79 -60 c-1 -18 -5 -27 -13 -24 -7 3
-13 9 -13 14 0 8 20 36 26 39 1 0 1 -13 0 -29z m171 -183 c-3 -7 -5 -2 -5 12
0 14 2 19 5 13 2 -7 2 -19 0 -25z m-327 -63 c0 -8 -2 -15 -4 -15 -2 0 -11 -3
-20 -6 -10 -4 -16 -1 -16 9 0 14 13 24 33 26 4 1 7 -6 7 -14z m327 -62 c-2
-16 -4 -3 -4 27 0 30 2 43 4 28 2 -16 2 -40 0 -55z m18 -40 c-4 -27 -11 -93
-15 -148 l-8 -100 1 122 c1 68 5 123 10 123 4 0 7 11 7 25 0 14 3 25 6 25 4 0
3 -21 -1 -47z m-430 -53 c3 -5 1 -10 -4 -10 -6 0 -11 5 -11 10 0 6 2 10 4 10
3 0 8 -4 11 -10z m2 -52 c-3 -8 -6 -5 -6 6 -1 11 2 17 5 13 3 -3 4 -12 1 -19z
m-81 -216 c-3 -3 -6 2 -6 12 0 9 -4 14 -10 11 -11 -7 -14 28 -3 39 4 4 11 -7
16 -24 4 -18 6 -35 3 -38z m4 -44 c0 -11 -27 -10 -34 1 -4 5 -3 17 1 27 6 16
7 16 20 -2 7 -10 13 -21 13 -26z m-40 -28 c0 -5 -4 -10 -10 -10 -5 0 -10 5
-10 10 0 6 5 10 10 10 6 0 10 -4 10 -10z m527 -72 c-2 -13 -4 -3 -4 22 0 25 2
35 4 23 2 -13 2 -33 0 -45z m-570 -40 c-2 -13 -4 -5 -4 17 -1 22 1 32 4 23 2
-10 2 -28 0 -40z m-7 -88 c0 -5 -5 -10 -11 -10 -5 0 -7 5 -4 10 3 6 8 10 11
10 2 0 4 -4 4 -10z m0 -30 c0 -5 -4 -10 -10 -10 -5 0 -10 5 -10 10 0 6 5 10
10 10 6 0 10 -4 10 -10z m-10 -51 c0 -17 -4 -28 -10 -24 -5 3 -10 17 -10 31 0
13 5 24 10 24 6 0 10 -14 10 -31z m17 -6 c-3 -10 -5 -4 -5 12 0 17 2 24 5 18
2 -7 2 -21 0 -30z m-15 -88 c2 -27 -1 -44 -7 -42 -13 5 -19 87 -7 87 6 0 12
-20 14 -45z m527 -51 c2 -2 -3 -4 -11 -4 -9 0 -18 -6 -21 -12 -3 -9 -12 -6
-27 10 l-22 23 39 -7 c21 -4 40 -8 42 -10z m-12009 -18 c0 -3 -4 -8 -10 -11
-5 -3 -10 -1 -10 4 0 6 5 11 10 11 6 0 10 -2 10 -4z"/>
<path d="M18413 6180 c0 -25 2 -35 4 -22 2 12 2 32 0 45 -2 12 -4 2 -4 -23z"/>
<path d="M18417 6988 c8 -46 13 -48 13 -5 0 21 -4 37 -10 37 -5 0 -7 -14 -3
-32z"/>
<path d="M6587 6923 c-4 -8 110 -278 173 -410 17 -35 30 -66 30 -71 0 -4 21
-55 46 -112 166 -377 418 -1050 510 -1365 65 -219 121 -428 149 -560 30 -136
45 -174 45 -112 0 64 -110 516 -132 544 -5 7 -11 27 -12 45 -7 81 -313 947
-377 1066 -10 20 -19 43 -19 50 0 8 -6 28 -14 45 -8 18 -49 114 -90 215 -42
100 -90 212 -106 247 -17 36 -30 68 -30 71 0 3 -13 33 -28 67 -16 34 -50 113
-78 175 -46 106 -57 122 -67 105z"/>
<path d="M18370 6577 c0 -20 4 -37 10 -37 5 0 7 14 3 33 -8 45 -13 47 -13 4z"/>
<path d="M5411 5348 c0 -7 67 -46 148 -86 125 -61 338 -186 391 -229 28 -22
175 -128 205 -147 17 -11 41 -31 55 -45 14 -14 48 -46 75 -70 101 -88 262
-250 347 -349 48 -56 90 -97 93 -92 8 12 5 15 -94 130 -40 47 -83 92 -96 100
-41 28 -95 80 -119 114 -29 43 -182 179 -262 234 -33 22 -66 48 -74 57 -19 23
-178 132 -278 191 -46 27 -97 57 -115 68 -51 30 -261 136 -269 136 -4 0 -8 -6
-7 -12z"/>
<path d="M10745 5348 c-132 -49 -350 -254 -347 -327 1 -14 15 -106 31 -205 23
-135 38 -195 62 -247 18 -38 29 -72 25 -76 -9 -10 -27 19 -21 34 2 7 0 15 -5
18 -13 8 -4 -135 10 -149 5 -5 10 -29 10 -52 0 -23 11 -111 25 -195 14 -85 28
-171 31 -191 l6 -38 193 0 194 0 35 43 c112 137 186 334 186 497 0 72 -21 174
-46 222 -16 30 -17 31 -77 25 -34 -3 -70 -8 -79 -12 -16 -6 -17 1 -12 92 11
186 -39 392 -124 514 -41 58 -51 63 -97 47z m-119 -167 c-3 -4 4 -24 14 -44
11 -21 17 -37 14 -37 -4 0 1 -11 10 -24 9 -14 13 -33 10 -43 -6 -15 -4 -15 9
2 15 19 15 17 4 -25 l-11 -45 -10 50 c-5 28 -12 52 -16 55 -8 6 -40 98 -40
117 0 8 5 11 10 8 6 -4 8 -10 6 -14z m21 -323 c-3 -8 -6 -5 -6 6 -1 11 2 17 5
13 3 -3 4 -12 1 -19z m321 -353 c1 -26 0 -27 -8 -9 -8 20 -14 107 -10 129 4
14 18 -83 18 -120z m-432 -31 c-11 -29 -15 -33 -15 -16 -1 20 19 65 26 58 2
-1 -3 -20 -11 -42z m188 -183 c19 -94 16 -122 -3 -34 -7 32 -17 71 -22 87 -5
16 -9 36 -9 45 1 34 18 -14 34 -98z m37 -146 c4 -6 4 -17 0 -24 -9 -14 -21 19
-20 54 l1 20 5 -20 c3 -11 9 -25 14 -30z"/>
<path d="M23195 4603 c-220 -13 -548 -66 -619 -99 -54 -25 -53 -30 4 -14 136
40 526 90 701 90 64 0 79 3 79 15 0 15 -29 17 -165 8z"/>
<path d="M22245 4426 c-71 -23 -153 -54 -182 -69 -28 -15 -72 -31 -96 -37 -44
-10 -283 -114 -301 -131 -24 -22 10 -20 57 3 76 38 216 102 257 117 96 35 401
135 445 146 l50 13 -50 0 c-33 0 -95 -14 -180 -42z"/>
<path d="M4918 4433 c7 -3 16 -2 19 1 4 3 -2 6 -13 5 -11 0 -14 -3 -6 -6z"/>
<path d="M4975 4430 c30 -8 30 -8 -7 -9 -57 -2 -45 -16 15 -18 28 -1 45 1 37
4 -10 4 -4 10 20 19 34 12 34 12 -30 12 -50 0 -58 -2 -35 -8z"/>
<path d="M5065 4420 c-29 -7 -29 -8 10 -9 22 0 47 4 55 9 12 8 10 9 -10 9 -14
-1 -38 -5 -55 -9z"/>
<path d="M5138 4410 c-14 -4 -62 -11 -107 -15 -46 -4 -81 -12 -81 -18 0 -6 3
-8 6 -4 4 3 17 -9 30 -29 13 -19 33 -44 44 -57 40 -44 130 -162 130 -171 0 -5
9 -1 20 9 22 20 28 7 8 -14 -10 -11 -10 -14 0 -18 6 -3 12 -11 12 -19 0 -8 7
-14 15 -14 8 0 14 -3 13 -7 -2 -5 21 -41 50 -82 28 -41 52 -68 52 -60 0 8 -5
20 -11 26 -6 6 -9 17 -6 25 5 14 29 -34 32 -65 1 -9 10 -26 19 -36 9 -9 16
-22 16 -27 0 -5 9 -15 20 -22 12 -7 20 -8 20 -2 0 5 -4 10 -8 10 -4 0 -13 14
-19 30 -9 25 -9 30 3 30 8 0 14 -10 14 -24 0 -13 7 -29 15 -36 9 -7 14 -19 11
-27 -3 -7 -1 -23 4 -35 7 -15 9 87 7 302 -1 179 1 305 4 280 l7 -45 -2 45 c-1
38 -4 44 -20 42 -11 -2 -15 1 -11 7 7 13 -16 14 -65 2 -19 -4 -57 -4 -85 -1
-48 7 -47 7 24 9 41 0 72 3 70 5 -9 8 -206 14 -231 6z m44 -7 c-12 -2 -20 -8
-17 -12 2 -5 -8 -6 -23 -3 l-27 6 25 7 c14 4 34 7 45 7 16 -1 16 -2 -3 -5z
m-156 -70 c-4 -4 -14 1 -22 11 -22 31 -17 43 8 19 12 -13 18 -26 14 -30z m79
-73 c5 -30 11 -40 26 -40 10 0 19 -7 19 -15 0 -10 -6 -12 -17 -8 -27 10 -43
29 -43 52 0 11 -4 23 -10 26 -15 9 -12 25 4 25 9 0 17 -15 21 -40z m85 -95 c0
-7 -6 -17 -12 -23 -10 -8 -14 -3 -15 18 -2 22 2 28 12 23 8 -3 15 -11 15 -18z
m84 -129 c-3 -9 -10 -16 -15 -16 -14 0 -11 28 4 33 16 6 19 3 11 -17z m83 -98
c-3 -8 -6 -5 -6 6 -1 11 2 17 5 13 3 -3 4 -12 1 -19z"/>
<path d="M5478 4345 c3 -28 0 -45 -7 -45 -14 0 -15 -558 -1 -580 16 -24 30 6
28 60 l-1 45 -7 -50 c-4 -32 -7 9 -8 118 -2 119 1 167 9 167 14 0 7 306 -7
320 -5 5 -8 -10 -6 -35z"/>
<path d="M5570 4350 c10 -6 11 -10 3 -10 -7 0 -13 -7 -13 -15 0 -8 5 -15 10
-15 6 0 9 -21 8 -47 l-1 -48 -6 45 -6 45 -8 -64 c-4 -35 -6 -145 -5 -245 l2
-181 6 205 6 205 0 -285 c1 -157 -2 -267 -6 -245 -6 32 -7 27 -4 -20 2 -32 9
-64 15 -70 7 -7 8 -2 4 16 -4 17 -2 30 6 34 9 6 11 -2 7 -32 -5 -36 -1 -46 44
-104 51 -65 78 -89 78 -69 0 6 10 3 23 -6 12 -10 23 -26 23 -35 0 -16 -2 -17
-16 -4 -28 25 -33 16 -8 -14 12 -16 34 -42 47 -59 l24 -30 17 21 c16 19 17 19
15 1 0 -11 -4 -24 -7 -29 -3 -6 7 -27 22 -47 l27 -37 6 58 c4 32 9 103 12 157
3 54 10 117 15 139 5 22 11 85 14 140 3 55 12 159 20 230 19 164 28 303 17
255 l-8 -35 -2 38 c-1 23 4 37 12 37 8 0 7 4 -3 10 -10 6 -11 10 -2 10 31 0 6
17 -47 31 -33 8 -58 12 -55 7 3 -4 1 -8 -4 -8 -6 0 -12 6 -15 13 -4 11 -32 14
-119 13 l-113 -1 -7 -230 c-11 -353 -16 -369 -14 -48 2 198 -1 294 -8 297 -6
2 -1 5 12 5 13 1 21 -3 18 -8 -4 -5 10 -5 32 0 46 11 76 10 42 -1 -20 -6 -21
-8 -5 -8 11 0 34 3 50 7 28 6 27 7 -22 17 -29 6 -50 7 -47 2 3 -4 -6 -8 -20
-8 -18 0 -24 4 -20 15 5 12 -2 15 -27 15 -26 0 -30 -3 -19 -10z m330 -87 c-14
-3 -29 -9 -34 -14 -13 -12 -26 -12 -26 0 0 11 25 19 60 18 l25 0 -25 -4z m30
-25 c0 -8 -15 -14 -36 -15 -40 -2 -35 12 6 20 14 2 26 5 28 6 1 0 2 -5 2 -11z
m12 -193 c-5 -27 -7 -66 -5 -85 3 -19 3 -32 -1 -29 -4 4 -8 42 -10 85 -2 51 0
72 5 59 6 -13 7 10 5 60 l-5 80 11 -60 c6 -40 6 -77 0 -110z m-15 -162 c-3
-10 -5 -4 -5 12 0 17 2 24 5 18 2 -7 2 -21 0 -30z m-282 -331 c12 -26 25 -29
26 -4 0 9 3 12 5 6 3 -6 1 -21 -4 -35 l-9 -24 -17 33 c-9 17 -21 32 -26 32 -6
0 -10 5 -10 11 0 18 24 4 35 -19z m212 -24 c-2 -13 -4 -5 -4 17 -1 22 1 32 4
23 2 -10 2 -28 0 -40z m36 15 c-6 -39 -10 -50 -17 -42 -6 8 6 79 14 79 5 0 6
-17 3 -37z m-183 -63 c0 -21 -15 -27 -25 -10 -7 12 2 30 16 30 5 0 9 -9 9 -20z
m43 -1 c4 -16 3 -18 -9 -8 -16 13 -19 29 -5 29 5 0 11 -9 14 -21z m117 -59 c4
-3 4 -23 0 -45 -4 -22 -8 -31 -9 -19 0 12 -3 48 -5 80 -2 32 -1 43 1 24 2 -19
8 -37 13 -40z m0 -147 c0 -24 -3 -33 -9 -25 -7 12 -4 62 5 62 2 0 4 -17 4 -37z"/>
<path d="M6740 4296 c0 -3 21 -31 48 -63 26 -32 92 -124 146 -205 86 -131 116
-167 116 -140 0 12 -116 188 -185 282 -53 71 -125 144 -125 126z"/>
<path d="M6031 4198 c-1 -23 -4 -45 -7 -50 -3 -4 0 -8 5 -8 6 0 12 19 12 43 1
25 4 33 6 18 6 -33 -6 -93 -18 -86 -5 4 -9 -14 -9 -42 0 -26 -3 -58 -6 -70 -4
-14 -2 -23 5 -23 6 0 11 17 11 40 0 22 5 40 11 40 6 0 8 -8 5 -17 -3 -10 -8
-39 -12 -65 -4 -31 -11 -48 -20 -48 -10 0 -14 -14 -15 -47 0 -27 -2 -59 -4
-73 -2 -14 -6 -54 -9 -90 -3 -36 -14 -159 -25 -275 -27 -276 -27 -313 2 -346
12 -15 32 -40 44 -55 88 -116 120 -154 136 -159 9 -4 17 -14 17 -24 0 -10 9
-26 20 -36 11 -10 20 -22 20 -27 0 -4 10 -18 22 -30 l21 -21 -6 50 c-3 28 -2
54 3 59 17 18 49 208 45 269 -3 47 -2 52 4 25 8 -33 9 -34 11 -7 3 32 4 35 15
62 5 11 9 48 9 82 1 34 4 55 7 45 3 -9 9 9 13 43 7 61 49 306 66 380 5 24 5
44 -1 49 -14 15 -11 30 4 18 9 -8 13 -7 13 6 1 9 6 44 12 77 5 33 8 73 5 89
-4 20 -2 27 6 22 7 -5 11 3 11 24 0 24 -6 33 -27 41 -15 6 -65 28 -111 50 -45
21 -88 39 -96 39 -7 0 -16 3 -19 6 -4 4 -28 15 -54 24 -27 9 -56 20 -65 25
-15 6 -18 1 -19 -31 l-2 -39 -6 39 c-8 54 -26 56 -30 4z m84 2 c3 -5 15 -10
25 -10 10 0 22 -5 25 -10 4 -7 -3 -8 -21 -4 -19 5 -25 4 -20 -5 4 -6 14 -11
22 -11 8 0 14 -5 14 -11 0 -12 -43 -1 -48 12 -2 5 -11 9 -19 9 -12 0 -13 3 -4
13 6 8 8 17 4 20 -3 4 -1 7 5 7 6 0 14 -4 17 -10z m145 -50 c18 -12 2 -12 -25
0 -13 6 -15 9 -5 9 8 0 22 -4 30 -9z m-57 -7 c-7 -2 -19 -2 -25 0 -7 3 -2 5
12 5 14 0 19 -2 13 -5z m-134 -70 c-1 -58 -2 -63 -9 -34 -7 31 -3 101 6 101 2
0 4 -30 3 -67z m286 27 c13 -6 15 -9 5 -9 -8 0 -22 4 -30 9 -18 12 -2 12 25 0z
m48 -25 c3 -14 -49 -18 -70 -5 -14 8 -9 9 21 4 30 -5 37 -4 31 6 -5 8 -3 11 4
9 7 -3 13 -9 14 -14z m27 -26 c-7 -13 -9 -40 -5 -69 7 -53 -1 -110 -16 -110
-5 0 -9 19 -8 43 1 36 2 38 9 17 7 -22 8 -21 9 13 1 21 -3 36 -7 33 -4 -2 -6
12 -4 32 5 49 9 62 22 62 7 0 7 -6 0 -21z m-350 -89 c0 -11 -2 -20 -4 -20 -2
0 -6 9 -9 20 -3 11 -1 20 4 20 5 0 9 -9 9 -20z m-83 -252 c-3 -7 -5 -2 -5 12
0 14 2 19 5 13 2 -7 2 -19 0 -25z m340 -100 c-2 -13 -4 -5 -4 17 -1 22 1 32 4
23 2 -10 2 -28 0 -40z m23 -38 l-11 -25 6 25 c2 14 6 41 7 60 l1 35 4 -35 c2
-20 -1 -47 -7 -60z m-362 -47 c0 -54 -4 -102 -8 -108 -4 -5 -10 -19 -13 -30
-4 -11 -4 16 -1 60 5 92 14 175 19 175 2 0 4 -44 3 -97z m339 -60 c-3 -10 -5
-4 -5 12 0 17 2 24 5 18 2 -7 2 -21 0 -30z m0 -75 c-3 -7 -5 -2 -5 12 0 14 2
19 5 13 2 -7 2 -19 0 -25z m-347 -62 c0 -8 -4 -18 -10 -21 -5 -3 -10 3 -10 14
0 12 5 21 10 21 6 0 10 -6 10 -14z m3 -88 c-3 -32 -13 -61 -25 -73 -16 -17
-18 -17 -12 -2 3 9 10 17 15 17 5 0 9 15 9 33 0 32 9 77 16 77 2 0 0 -24 -3
-52z m-36 0 c-3 -8 -6 -5 -6 6 -1 11 2 17 5 13 3 -3 4 -12 1 -19z m303 18 c0
-3 -4 -8 -10 -11 -5 -3 -10 -1 -10 4 0 6 5 11 10 11 6 0 10 -2 10 -4z m11
-152 c5 -6 6 -20 2 -30 -6 -17 -8 -16 -14 6 -4 14 -7 43 -6 65 0 39 0 40 4 5
3 -19 9 -40 14 -46z m-274 44 c-3 -8 -6 -5 -6 6 -1 11 2 17 5 13 3 -3 4 -12 1
-19z m-1 -46 c-9 -8 -26 10 -26 26 1 15 2 15 15 -2 8 -11 13 -21 11 -24z m81
-17 c9 -25 -2 -27 -22 -5 -17 18 -17 20 -1 20 9 0 19 -7 23 -15z m-38 -22 c16
-16 32 -41 35 -56 9 -39 -10 -26 -29 20 -8 19 -24 37 -35 40 -11 3 -20 9 -20
14 0 17 20 9 49 -18z m220 -83 c0 -19 -4 -44 -9 -55 -5 -13 -7 4 -6 46 0 37 4
62 8 55 4 -6 7 -27 7 -46z m-100 -50 c0 -3 -4 -13 -8 -24 -7 -17 -8 -17 -24 7
-16 24 -15 25 8 23 14 0 25 -3 24 -6z m62 -88 c-6 -10 -6 -23 1 -35 5 -10 7
-21 5 -24 -3 -3 -13 10 -23 29 -9 18 -21 36 -26 39 -5 3 5 6 22 7 25 1 29 -2
21 -16z"/>
<path d="M5983 3460 c0 -25 2 -35 4 -22 2 12 2 32 0 45 -2 12 -4 2 -4 -23z"/>
<path d="M7546 4220 c-4 -14 -1 -52 7 -85 l15 -60 0 65 c0 36 -3 74 -8 85 -7
19 -8 18 -14 -5z"/>
<path d="M6516 3983 c-3 -27 -11 -70 -16 -98 -18 -90 -28 -189 -23 -218 4 -20
2 -27 -8 -25 -16 3 -17 -27 -7 -132 l7 -65 -13 55 c-10 40 -15 50 -21 37 -4
-9 -5 -30 -3 -47 2 -16 1 -27 -4 -24 -8 5 -12 -24 -8 -59 1 -10 -4 -24 -10
-32 -6 -7 -11 -39 -11 -70 -1 -37 -4 -53 -10 -44 -12 19 -12 -16 0 -59 6 -20
6 -30 0 -27 -5 4 -10 14 -10 23 -1 9 -5 -10 -10 -42 -9 -59 -5 -86 7 -50 16
53 20 50 20 -18 1 -62 0 -66 -6 -28 l-7 45 -1 -42 c-2 -50 -22 -59 -23 -10 -1
23 -5 14 -15 -33 -25 -118 -36 -192 -31 -211 3 -10 1 -17 -4 -13 -5 3 -9 -9
-9 -26 0 -17 -4 -39 -9 -49 -12 -21 15 -66 39 -66 9 0 15 -9 14 -23 0 -15 4
-21 12 -18 8 3 11 0 8 -9 -4 -8 8 -28 25 -46 17 -17 31 -34 31 -37 0 -4 8 -16
17 -27 15 -19 15 -19 9 7 -3 15 -2 29 3 32 11 7 24 -41 16 -55 -7 -11 42 -73
59 -75 6 -1 16 -2 21 -3 6 -1 4 -5 -4 -10 -11 -7 -9 -14 13 -37 14 -16 26 -32
26 -36 0 -5 4 -8 9 -8 10 0 50 159 54 211 1 19 6 37 12 41 5 4 10 43 10 88 0
44 3 80 8 80 4 0 8 -12 8 -27 1 -16 5 -1 10 32 5 33 13 69 18 80 14 30 43 176
42 211 0 18 -5 42 -10 55 -6 17 -9 -1 -9 -64 0 -48 -2 -91 -6 -94 -4 -4 -4 51
-2 121 3 71 7 131 10 134 4 3 6 -13 6 -36 0 -23 4 -42 9 -42 5 0 11 -6 14 -12
5 -16 1 16 -8 60 -4 20 -3 32 4 32 6 0 11 -12 11 -27 l1 -28 14 32 c7 17 16
53 19 80 3 26 9 62 14 78 28 90 33 133 21 173 -15 51 -6 92 21 92 20 0 21 3
41 95 23 108 23 104 -2 125 -13 10 -30 19 -37 20 -7 0 -11 4 -8 9 8 13 -24 23
-38 13 -6 -5 -31 -12 -55 -15 -25 -3 -39 -2 -32 2 10 6 10 10 1 16 -6 4 -10
22 -8 41 2 25 -3 38 -17 48 -24 16 -171 96 -177 96 -3 0 -8 -21 -12 -47z m37
5 c4 -12 4 -24 1 -27 -6 -7 -24 20 -24 37 0 21 17 13 23 -10z m37 -4 c0 -2 -7
-4 -15 -4 -8 0 -15 4 -15 10 0 5 7 7 15 4 8 -4 15 -8 15 -10z m93 -50 c15 -5
25 -24 13 -24 -2 0 -13 -3 -23 -6 -15 -5 -16 -4 -3 6 13 10 12 11 -5 7 -15 -3
-21 1 -21 15 0 10 5 16 11 13 5 -3 18 -8 28 -11z m-162 -74 c-8 -43 -9 -44
-10 -10 -1 39 11 94 16 70 2 -8 -1 -35 -6 -60z m32 13 c-3 -29 -9 -53 -14 -53
-5 0 -9 7 -9 16 0 18 22 96 26 92 1 -2 -1 -27 -3 -55z m347 -99 c0 -8 -5 -12
-10 -9 -6 4 -8 11 -5 16 9 14 15 11 15 -7z m-3 -56 c-3 -7 -5 -2 -5 12 0 14 2
19 5 13 2 -7 2 -19 0 -25z m-10 -55 c-3 -10 -5 -4 -5 12 0 17 2 24 5 18 2 -7
2 -21 0 -30z m-407 -75 c0 -5 -4 -8 -10 -8 -5 0 -10 10 -10 23 0 18 2 19 10 7
5 -8 10 -18 10 -22z m-3 -70 c-3 -8 -6 -5 -6 6 -1 11 2 17 5 13 3 -3 4 -12 1
-19z m339 -67 c-3 -20 -3 -28 0 -18 7 21 24 23 24 2 0 -8 -4 -15 -10 -15 -5 0
-13 -1 -17 -2 -5 -2 -8 24 -9 56 -1 44 1 53 8 36 5 -12 6 -39 4 -59z m-340
-78 c-12 -12 -38 8 -32 24 4 9 1 20 -5 24 -6 4 -8 12 -4 18 4 8 14 -1 27 -24
10 -21 17 -39 14 -42z m-36 -23 c0 -5 -4 -10 -10 -10 -5 0 -10 5 -10 10 0 6 5
10 10 10 6 0 10 -4 10 -10z m-83 -392 c-2 -13 -4 -3 -4 22 0 25 2 35 4 23 2
-13 2 -33 0 -45z m30 -5 c-3 -10 -5 -2 -5 17 0 19 2 27 5 18 2 -10 2 -26 0
-35z m297 -163 c4 -25 3 -31 -4 -20 -5 8 -10 26 -10 39 0 32 6 24 14 -19z
m-33 -69 c-8 -45 -9 -45 -8 22 1 45 4 60 9 46 5 -11 4 -42 -1 -68z m-334 37
c-3 -8 -6 -5 -6 6 -1 11 2 17 5 13 3 -3 4 -12 1 -19z m-10 -50 c-3 -8 -6 -5
-6 6 -1 11 2 17 5 13 3 -3 4 -12 1 -19z m93 -58 c0 -11 -2 -20 -5 -20 -2 0 -9
9 -15 20 -9 16 -8 20 5 20 8 0 15 -9 15 -20z m247 -42 c-3 -8 -6 -5 -6 6 -1
11 2 17 5 13 3 -3 4 -12 1 -19z m-249 -14 c0 -15 -4 -22 -10 -16 -5 5 -6 16
-2 25 9 23 12 21 12 -9z m115 -148 c4 -10 1 -13 -9 -9 -7 3 -14 9 -14 14 0 14
17 10 23 -5z m45 -13 l10 -28 1 29 c1 16 4 27 7 24 3 -4 2 -27 -1 -53 -8 -51
-17 -52 -20 -3 -2 18 -8 34 -14 36 -13 4 -15 22 -2 22 5 0 14 -12 19 -27z m49
-35 c-2 -13 -4 -3 -4 22 0 25 2 35 4 23 2 -13 2 -33 0 -45z m-14 -33 c4 -8 2
-17 -3 -20 -6 -4 -10 3 -10 14 0 25 6 27 13 6z"/>
<path d="M6732 3883 c4 -33 50 -55 71 -34 10 10 8 15 -7 27 -25 18 -37 18 -30
-1 4 -8 1 -15 -5 -15 -11 0 -15 13 -12 38 1 6 -3 12 -9 12 -6 0 -10 -12 -8
-27z m68 -23 c0 -5 -2 -10 -4 -10 -3 0 -8 5 -11 10 -3 6 -1 10 4 10 6 0 11 -4
11 -10z"/>
<path d="M6980 3725 c0 -8 2 -15 4 -15 2 0 6 7 10 15 3 8 1 15 -4 15 -6 0 -10
-7 -10 -15z"/>
<path d="M6992 3701 c-29 -22 -44 -69 -38 -111 4 -26 3 -30 -4 -15 -8 19 -9
19 -9 -2 -1 -12 -7 -46 -15 -75 -7 -29 -12 -78 -11 -108 2 -30 1 -42 -2 -25
l-5 30 -14 -34 c-8 -18 -14 -53 -14 -76 0 -26 -5 -45 -12 -48 -10 -3 -10 -7 0
-19 10 -12 10 -17 1 -20 -7 -2 -13 -13 -15 -24 -1 -10 -11 -62 -23 -113 -15
-69 -17 -99 -9 -108 8 -10 7 -13 -5 -13 -15 0 -28 -41 -41 -130 -4 -25 -3 -29
3 -15 6 14 8 2 8 -40 -1 -33 3 -77 7 -97 6 -27 5 -38 -3 -38 -6 0 -11 15 -11
33 0 40 -10 77 -20 77 -5 0 -7 -26 -5 -57 3 -36 2 -47 -3 -29 l-7 29 -12 -34
c-6 -19 -14 -64 -18 -101 -4 -38 -10 -68 -14 -68 -4 0 -7 -8 -8 -17 0 -10 -11
-64 -23 -120 l-23 -102 43 -56 c51 -67 60 -73 72 -51 5 9 14 16 21 16 8 0 9
-3 1 -8 -18 -12 -24 -43 -11 -57 6 -8 26 -32 42 -54 17 -22 36 -40 43 -41 20
0 14 11 -29 51 -29 27 -35 36 -20 32 35 -9 71 -60 67 -94 -2 -19 2 -33 10 -36
8 -3 14 -11 14 -19 0 -8 5 -14 10 -14 6 0 10 -7 10 -16 0 -14 1 -14 16 0 21
22 27 20 13 -5 -8 -16 -8 -24 1 -33 9 -8 11 -7 9 4 -1 8 6 31 15 50 12 24 15
27 11 10 -3 -14 -8 -43 -10 -65 -4 -37 -4 -37 5 -10 5 17 20 77 35 135 14 58
37 150 51 205 40 159 43 179 33 191 -6 8 -3 13 11 17 11 3 20 13 20 24 0 10
10 54 21 98 12 44 23 94 26 110 3 17 10 35 15 41 5 7 10 34 11 62 1 28 4 48 6
46 7 -6 39 103 47 156 4 25 11 51 16 57 6 7 10 31 10 53 -1 23 3 38 9 35 5 -4
5 5 -1 21 -6 15 -8 29 -5 32 3 3 5 -1 5 -8 0 -28 17 6 34 67 9 34 14 73 10 87
-4 18 -2 28 9 32 8 3 17 15 20 26 5 16 2 19 -14 15 -10 -3 -17 -1 -13 4 3 5
12 9 20 9 22 0 17 16 -15 43 -17 14 -28 27 -25 29 4 5 -151 160 -220 219 -22
19 -49 43 -61 55 -21 19 -24 20 -43 5z m42 -26 c18 -13 17 -14 -16 -13 -29 1
-34 4 -24 14 14 17 17 17 40 -1z m61 -64 c10 -2 25 -9 33 -17 11 -12 9 -14
-17 -14 -24 0 -34 7 -46 30 -9 17 -12 36 -8 43 5 8 9 3 13 -13 3 -14 14 -27
25 -29z m93 -89 c3 -9 -2 -13 -14 -10 -9 1 -19 9 -22 16 -3 9 2 13 14 10 9 -1
19 -9 22 -16z m-229 -61 c1 -48 -5 -35 -12 24 -4 32 -3 43 3 30 5 -11 9 -35 9
-54z m176 49 c3 -5 1 -10 -4 -10 -6 0 -11 5 -11 10 0 6 2 10 4 10 3 0 8 -4 11
-10z m130 -60 c27 0 36 -17 24 -45 -8 -18 -8 -17 -6 5 2 20 -3 25 -28 27 -16
1 -33 -3 -37 -10 -4 -6 -10 -8 -15 -4 -4 5 -1 12 6 17 8 4 11 15 7 25 -3 9 -3
22 1 28 4 6 10 0 16 -16 6 -19 16 -27 32 -27z m-317 -65 c0 -25 -2 -24 -9 10
-10 51 -10 92 1 50 4 -16 8 -43 8 -60z m377 -5 c3 -5 1 -10 -4 -10 -6 0 -11 5
-11 10 0 6 2 10 4 10 3 0 8 -4 11 -10z m-25 -31 c0 -5 -4 -9 -10 -9 -5 0 -10
7 -10 16 0 8 5 12 10 9 6 -3 10 -10 10 -16z m0 -59 c-6 -11 -13 -20 -15 -20
-3 0 -5 9 -5 20 0 11 7 20 15 20 13 0 14 -4 5 -20z m19 -100 c0 -9 -6 -4 -14
10 -8 14 -14 34 -14 45 1 15 4 13 14 -10 8 -16 14 -37 14 -45z m-20 -22 c1 -5
-3 -8 -9 -8 -5 0 -10 12 -9 28 0 24 1 25 9 7 5 -11 9 -23 9 -27z m-422 -85
c-1 -54 -3 -84 -5 -68 -2 17 -8 35 -14 42 -6 8 -5 31 4 67 7 31 13 56 14 56 1
0 2 -44 1 -97z m-21 -101 c2 -13 9 -20 14 -17 6 3 10 -1 10 -9 0 -21 -26 -21
-34 0 -3 9 -5 32 -5 52 1 20 3 28 6 17 2 -11 6 -30 9 -43z m378 12 c9 -36 -1
-43 -14 -10 -12 33 -12 36 -1 36 5 0 12 -12 15 -26z m36 17 c0 -6 -4 -13 -10
-16 -5 -3 -10 1 -10 9 0 9 5 16 10 16 6 0 10 -4 10 -9z m-45 -97 c17 -42 19
-54 6 -54 -5 0 -11 12 -13 28 -3 15 -9 35 -13 45 -4 9 -4 17 -1 17 3 0 13 -16
21 -36z m22 4 c-3 -8 -6 -5 -6 6 -1 11 2 17 5 13 3 -3 4 -12 1 -19z m-34 -79
c-8 -29 -13 -23 -13 14 0 22 3 28 9 18 5 -7 6 -22 4 -32z m-416 -121 c-3 -8
-6 -5 -6 6 -1 11 2 17 5 13 3 -3 4 -12 1 -19z m360 -100 c-2 -13 -4 -5 -4 17
-1 22 1 32 4 23 2 -10 2 -28 0 -40z m-30 -5 c-3 -10 -5 -4 -5 12 0 17 2 24 5
18 2 -7 2 -21 0 -30z m14 -60 c-10 -17 -10 -16 -11 3 0 23 13 41 18 25 2 -6
-1 -18 -7 -28z m-14 -65 c-3 -7 -5 -2 -5 12 0 14 2 19 5 13 2 -7 2 -19 0 -25z
m-412 -128 c0 -16 -3 -30 -7 -30 -5 0 -8 -7 -8 -15 0 -8 3 -15 8 -15 4 0 7
-20 7 -44 0 -24 -3 -42 -7 -39 -5 2 -8 22 -8 44 0 22 -5 39 -11 39 -7 0 -10
-16 -8 -44 3 -28 0 -42 -7 -39 -13 5 -2 89 14 105 6 6 8 17 5 24 -6 16 3 44
14 44 4 0 8 -13 8 -30z m361 -7 c3 -16 7 -33 9 -39 2 -6 -1 -17 -6 -25 -6 -10
-9 -5 -9 16 0 17 -7 41 -16 53 -14 20 -14 22 0 22 9 0 18 -12 22 -27z m-11
-122 c3 -6 2 -11 -4 -11 -5 0 -11 -12 -13 -27 -2 -16 -4 10 -4 57 -1 72 0 78
7 38 4 -26 10 -52 14 -57z m-351 -47 c3 -8 2 -12 -4 -9 -6 3 -10 10 -10 16 0
14 7 11 14 -7z m82 -90 c-4 -9 -9 -15 -11 -12 -3 3 -3 13 1 22 4 9 9 15 11 12
3 -3 3 -13 -1 -22z m84 -44 c0 -5 -2 -10 -4 -10 -3 0 -8 5 -11 10 -3 6 -1 10
4 10 6 0 11 -4 11 -10z m111 -65 c5 4 9 22 9 41 0 19 5 34 10 34 12 0 12 2 -1
-60 -6 -27 -14 -50 -19 -50 -11 0 -20 39 -18 80 1 32 2 31 5 -8 2 -23 8 -40
14 -37z m-34 -25 c8 -11 9 -21 3 -25 -8 -5 -30 24 -30 39 0 13 16 5 27 -14z
m-47 -6 c0 -8 -4 -12 -10 -9 -5 3 -10 10 -10 16 0 5 5 9 10 9 6 0 10 -7 10
-16z"/>
<path d="M12002 3613 c-32 -6 -39 -26 -46 -141 -4 -57 -9 -111 -12 -120 -10
-32 56 53 86 110 31 60 39 125 18 146 -7 7 -14 11 -17 11 -4 -1 -16 -4 -29 -6z"/>
<path d="M6851 3518 c1 -41 1 -41 8 -12 4 17 11 36 15 42 4 7 1 12 -8 12 -12
0 -16 -10 -15 -42z"/>
<path d="M21730 3520 c-64 -3 -93 -8 -75 -11 17 -4 -7 -5 -51 -4 -73 2 -180
-8 -190 -18 -8 -8 -34 -176 -34 -224 0 -28 -5 -53 -11 -55 -6 -2 -11 -33 -11
-72 -1 -43 -4 -62 -9 -50 -5 13 -8 6 -8 -24 -1 -26 3 -41 9 -37 17 10 11 -7
-6 -20 -14 -10 -16 -24 -9 -101 6 -68 10 -83 16 -64 7 21 8 19 4 -9 -3 -18 -5
-55 -5 -82 0 -27 -4 -49 -8 -49 -8 0 -10 26 -12 159 -1 65 -13 41 -27 -52 -6
-45 -19 -122 -28 -172 -9 -49 -14 -103 -10 -120 11 -54 14 -189 5 -240 -8 -44
-8 -40 -5 30 4 80 4 80 -9 35 -13 -44 -13 -44 -18 -15 -3 17 -3 1 0 -35 2 -36
9 -67 13 -68 11 -4 1 -22 -12 -22 -5 0 -10 19 -10 43 -1 39 -2 40 -8 12 -4
-16 -4 -37 1 -47 5 -11 3 -18 -7 -22 -8 -3 -15 -10 -15 -16 0 -6 18 -1 40 11
21 12 37 26 34 31 -3 4 5 8 18 8 16 0 19 3 10 8 -7 5 -10 16 -6 25 3 10 1 17
-5 17 -6 0 -11 5 -11 10 0 6 7 6 19 -1 13 -9 26 -9 49 -1 17 6 40 8 51 5 12
-3 26 3 37 16 10 12 23 21 29 21 5 0 19 7 29 15 20 15 20 15 0 30 -15 11 -16
14 -3 15 8 0 20 -5 26 -11 10 -10 48 2 63 20 3 3 14 11 25 17 13 7 26 35 38
80 10 38 23 77 28 86 5 10 9 35 9 57 0 48 9 73 23 64 5 -3 7 -2 4 3 -3 6 3 37
14 69 11 33 18 68 15 78 -2 10 2 17 10 17 14 0 18 19 16 75 -1 26 0 27 8 10 7
-14 8 2 4 50 -4 39 -3 67 1 63 5 -4 8 -22 7 -39 -1 -40 8 -31 18 18 5 21 17
68 28 106 12 37 19 84 16 105 -3 28 -2 31 4 12 7 -21 10 -15 26 45 11 39 24
81 31 95 7 14 15 48 17 75 l4 50 -45 0 c-25 0 -93 -2 -151 -5z m-296 -171 c-2
-66 -7 -125 -10 -131 -4 -6 -13 4 -20 22 -16 37 -18 52 -4 30 15 -23 22 -5 14
36 -7 37 -8 38 -16 14 -6 -21 -7 -20 -2 5 21 116 28 145 34 145 4 0 6 -54 4
-121z m446 -3 c-1 -19 -29 38 -29 59 0 14 4 10 14 -14 8 -18 15 -38 15 -45z
m-21 -21 c0 -5 -4 -3 -9 5 -5 8 -9 22 -9 30 0 16 17 -16 18 -35z m-68 -225 c5
0 9 18 9 40 0 22 5 40 10 40 6 0 8 -12 5 -27 -4 -16 -8 -39 -11 -51 -4 -19 -8
-21 -18 -12 -8 6 -16 7 -18 3 -3 -4 -3 -2 -1 5 1 8 4 30 5 50 1 36 2 36 5 -5
2 -24 8 -43 14 -43z m-431 -189 c0 -32 -6 -24 -14 19 -4 25 -3 31 4 20 5 -8
10 -26 10 -39z m358 -79 c2 -11 -3 -33 -11 -48 -14 -26 -14 -26 -13 24 1 51
18 67 24 24z m-401 -84 c-2 -13 -4 -3 -4 22 0 25 2 35 4 23 2 -13 2 -33 0 -45z
m325 -188 c3 -17 1 -33 -4 -36 -4 -3 -8 11 -8 30 0 44 6 47 12 6z m-365 -12
c-3 -8 -6 -5 -6 6 -1 11 2 17 5 13 3 -3 4 -12 1 -19z m345 -39 c6 -4 6 -18 0
-40 -7 -23 -10 -27 -11 -13 -1 12 -3 41 -5 65 -2 24 -1 33 1 19 3 -14 9 -28
15 -31z m-73 -68 c-26 -21 -35 -20 -26 4 4 8 16 15 28 15 21 0 21 0 -2 -19z
m29 -27 c-16 -8 -28 -19 -28 -23 0 -5 -7 -12 -16 -15 -10 -4 -13 -2 -8 7 17
29 39 47 58 47 19 -1 18 -3 -6 -16z m-98 -64 c0 -5 -7 -10 -16 -10 -8 0 -12 5
-9 10 3 6 10 10 16 10 5 0 9 -4 9 -10z"/>
<path d="M21423 3380 c0 -25 2 -35 4 -22 2 12 2 32 0 45 -2 12 -4 2 -4 -23z"/>
<path d="M22013 3513 c-18 -4 -25 -17 -39 -81 -9 -42 -21 -83 -27 -90 -5 -7
-7 -28 -4 -46 4 -28 3 -34 -9 -29 -10 3 -14 -2 -15 -18 -1 -57 -6 -106 -13
-128 -5 -14 -4 -21 1 -18 5 3 7 -7 5 -24 -2 -16 -8 -32 -13 -35 -5 -3 -10 -22
-10 -42 -1 -37 -1 -37 -8 -7 -4 17 -3 38 2 48 9 20 18 112 10 103 -3 -3 -9
-22 -13 -43 -5 -21 -15 -62 -23 -90 -12 -44 -12 -53 -1 -53 8 0 14 -5 14 -11
0 -6 -9 -9 -19 -6 -17 4 -22 -9 -46 -104 -15 -60 -24 -117 -21 -125 4 -11 2
-15 -8 -11 -16 6 -29 -42 -19 -70 5 -11 3 -14 -6 -8 -11 6 -12 -5 -6 -54 6
-54 5 -62 -12 -68 -18 -7 -33 -22 -33 -35 0 -5 96 49 139 78 1 2 4 14 5 27 0
15 6 23 14 20 9 -4 10 -9 1 -19 -15 -18 1 -17 25 1 21 16 21 17 -8 32 -16 9
-14 10 12 9 16 0 28 -4 26 -8 -3 -4 9 -2 26 3 16 6 30 15 30 19 0 4 10 11 23
14 12 3 33 15 47 27 l25 21 -25 -6 c-14 -3 -32 -1 -40 5 -11 7 -3 9 30 8 67
-3 78 -1 61 10 -12 8 -12 12 -2 25 9 11 10 16 2 16 -6 0 -11 5 -11 11 0 8 4 8
15 -1 8 -6 20 -8 26 -4 9 5 7 10 -7 15 -16 6 -15 8 9 8 19 1 27 -4 27 -16 1
-10 16 24 35 74 18 51 31 102 28 113 -4 13 0 20 10 20 25 0 28 27 4 35 -21 6
-22 6 -2 14 11 5 24 6 29 3 5 -3 6 3 2 13 -4 11 -9 44 -11 75 -2 30 -1 45 1
33 6 -24 31 -49 41 -39 4 3 7 22 7 41 1 24 5 34 14 30 9 -3 12 12 13 53 1 47
3 51 8 23 6 -32 7 -30 30 45 14 44 28 84 33 90 4 6 2 16 -4 22 -9 9 -8 12 6
12 12 0 16 5 12 15 -3 9 1 18 9 21 8 4 12 10 9 15 -8 14 -24 10 -24 -6 0 -8
-6 -15 -12 -15 -9 0 -8 -4 2 -10 11 -7 6 -10 -20 -9 -29 0 -31 2 -15 9 11 5
16 9 10 10 -5 1 -1 5 10 10 16 7 12 9 -20 10 -36 2 -38 3 -15 11 23 8 22 8 -6
4 -17 -2 -35 0 -41 6 -5 5 -53 11 -106 12 -53 1 -97 5 -97 10 0 7 -38 7 -77 0z
m-15 -79 c-1 -23 -4 -31 -9 -22 -7 13 -2 58 7 58 2 0 3 -16 2 -36z m264 21 c0
-5 -5 -11 -11 -13 -6 -2 -11 4 -11 13 0 9 5 15 11 13 6 -2 11 -8 11 -13z m101
-55 c5 -20 -12 -93 -26 -106 -4 -4 -7 2 -7 14 0 11 5 24 11 28 7 4 9 22 6 45
-5 40 7 54 16 19z m-365 -75 c-1 -27 -1 -27 -5 -5 -3 14 -9 30 -15 37 -5 7 -6
18 -2 24 10 17 23 -16 22 -56z m329 28 c-3 -10 -5 -4 -5 12 0 17 2 24 5 18 2
-7 2 -21 0 -30z m-360 -50 c-3 -10 -5 -4 -5 12 0 17 2 24 5 18 2 -7 2 -21 0
-30z m310 -175 c-3 -7 -5 -2 -5 12 0 14 2 19 5 13 2 -7 2 -19 0 -25z m-360
-120 c-3 -7 -5 -2 -5 12 0 14 2 19 5 13 2 -7 2 -19 0 -25z m257 -76 c-5 -26
-5 -27 11 -7 17 20 17 20 13 0 -2 -11 -11 -21 -21 -23 -14 -3 -17 4 -17 33 0
22 4 34 10 30 6 -3 8 -18 4 -33z m-254 18 c0 -5 -4 -10 -10 -10 -5 0 -10 5
-10 10 0 6 5 10 10 10 6 0 10 -4 10 -10z m-84 -120 c0 -55 -3 -85 -9 -78 -5 8
-7 1 -4 -19 2 -18 0 -33 -4 -33 -12 0 -19 32 -14 70 5 38 26 150 28 150 1 0 2
-41 3 -90z m335 3 c-9 -15 -10 -13 -7 12 6 40 8 43 13 23 2 -10 0 -25 -6 -35z
m-211 -137 c0 -3 -4 -8 -10 -11 -5 -3 -10 -1 -10 4 0 6 5 11 10 11 6 0 10 -2
10 -4z m-20 -46 c4 0 10 7 14 15 6 17 36 21 36 4 0 -6 -9 -13 -20 -16 -11 -3
-20 -12 -20 -19 0 -14 -20 -20 -20 -6 0 4 -2 16 -4 27 -2 11 -1 14 1 8 3 -7 8
-13 13 -13z"/>
<path d="M21816 2801 c-4 -7 -5 -15 -2 -18 9 -9 19 4 14 18 -4 11 -6 11 -12 0z"/>
<path d="M21150 3442 c-58 -14 -107 -29 -110 -33 -3 -4 -23 -10 -45 -14 -51
-8 -95 -25 -95 -36 0 -5 -10 -8 -22 -6 -21 2 -23 -3 -26 -48 -2 -29 -6 -44
-11 -36 -8 12 -23 -139 -26 -244 0 -27 -3 -57 -7 -65 -10 -25 -24 -180 -16
-180 5 0 8 -9 8 -21 0 -11 -4 -18 -9 -15 -12 8 -22 -120 -17 -227 2 -57 1 -73
-3 -42 l-7 50 -8 -75 c-11 -107 -12 -150 -3 -192 8 -38 -7 -57 -16 -20 -2 9
-2 0 0 -21 3 -21 0 -43 -6 -50 -6 -8 -12 -44 -15 -83 -2 -38 -7 -94 -11 -125
-5 -39 -4 -58 4 -64 9 -5 9 -10 0 -21 -18 -22 11 -18 41 6 14 11 30 20 37 20
6 0 13 3 15 8 5 11 61 48 86 56 12 4 28 13 35 20 7 8 57 40 110 72 53 31 95
59 93 62 -3 2 -19 -3 -37 -12 -31 -15 -49 -14 -49 4 0 5 6 7 14 4 8 -3 28 1
44 10 16 8 33 12 37 8 4 -4 5 9 1 28 -4 19 -9 55 -11 80 l-4 45 9 -44 c15 -71
19 -71 14 -1 -2 42 -1 56 4 40 7 -21 10 -17 16 30 4 31 4 64 0 73 -10 28 6
127 21 127 12 0 32 86 22 97 -3 2 -1 19 5 36 14 45 47 273 48 329 0 25 5 48
11 50 6 2 11 24 12 50 1 25 6 44 11 41 9 -6 4 32 -9 72 -5 15 -5 17 3 6 8 -11
12 -5 16 25 3 21 10 64 15 94 22 124 24 153 12 146 -6 -4 -11 -2 -11 3 0 17
-57 12 -170 -17z m150 8 c0 -5 -10 -10 -22 -10 -19 0 -20 2 -8 10 19 13 30 13
30 0z m-17 -30 c5 -4 7 -16 4 -26 -4 -16 -5 -15 -6 4 -1 22 -20 27 -91 24 -23
-1 -23 -1 -5 8 21 10 85 4 98 -10z m40 -7 c-4 -16 -7 -37 -7 -48 0 -11 -4 -23
-9 -26 -5 -4 -9 -35 -9 -69 0 -35 -3 -58 -7 -51 -8 13 -8 33 3 126 10 76 15
95 27 95 5 0 6 -12 2 -27z m-356 -49 c-3 -3 -12 -4 -19 -1 -8 3 -5 6 6 6 11 1
17 -2 13 -5z m-95 -109 l-9 -70 -2 76 c0 42 2 79 7 83 12 13 13 -15 4 -89z
m85 89 c-3 -3 -12 -4 -19 -1 -8 3 -5 6 6 6 11 1 17 -2 13 -5z m76 -1 c-7 -2
-19 -2 -25 0 -7 3 -2 5 12 5 14 0 19 -2 13 -5z m-170 -165 c5 -3 11 -30 12
-60 2 -52 2 -52 -4 -8 -4 30 -8 39 -13 28 -4 -9 -3 -43 1 -75 9 -60 4 -123 -8
-123 -4 0 -6 37 -5 83 3 78 3 80 -8 37 -7 -26 -13 -38 -15 -27 -3 9 1 34 8 54
6 20 12 64 12 97 0 34 2 48 5 31 2 -16 9 -33 15 -37z m372 -316 c-11 -87 -17
-52 -8 44 5 61 9 76 11 49 2 -22 1 -64 -3 -93z m-28 56 c-2 -13 -4 -3 -4 22 0
25 2 35 4 23 2 -13 2 -33 0 -45z m12 -167 c1 -48 -5 -36 -13 24 -4 34 -3 43 3
30 5 -11 10 -35 10 -54z m-422 -83 c-3 -7 -5 -2 -5 12 0 14 2 19 5 13 2 -7 2
-19 0 -25z m2 -132 c1 -109 -8 -91 -13 25 -2 54 0 85 4 74 5 -11 9 -56 9 -99z
m340 -113 c1 -23 6 -43 12 -45 6 -2 9 -13 7 -23 -4 -18 -6 -17 -15 6 -14 33
-27 152 -14 124 5 -11 10 -39 10 -62z m-359 -43 c6 0 5 -11 0 -25 -6 -16 -6
-50 -1 -88 8 -62 5 -127 -8 -127 -3 0 -6 62 -6 138 -1 75 1 129 3 120 2 -10 8
-18 12 -18z m17 -82 c-2 -13 -4 -3 -4 22 0 25 2 35 4 23 2 -13 2 -33 0 -45z
m330 15 c-3 -10 -5 -2 -5 17 0 19 2 27 5 18 2 -10 2 -26 0 -35z m-145 -269
c-9 -7 -19 -9 -22 -6 -3 4 -9 10 -13 13 -4 3 6 6 23 6 26 0 27 -2 12 -13z
m-77 -44 c3 -5 1 -10 -4 -10 -6 0 -11 5 -11 10 0 6 2 10 4 10 3 0 8 -4 11 -10z
m-188 -52 c-3 -7 -5 -2 -5 12 0 14 2 19 5 13 2 -7 2 -19 0 -25z m107 -2 c-10
-8 -21 -12 -24 -10 -5 6 21 24 34 24 6 0 1 -6 -10 -14z"/>
<path d="M22480 3460 c0 -4 19 -12 43 -18 l42 -11 -47 5 c-44 5 -48 3 -48 -16
0 -11 -7 -34 -15 -51 -9 -16 -14 -44 -12 -62 2 -18 2 -24 0 -14 -6 25 -23 21
-23 -7 0 -13 -4 -26 -10 -28 -5 -1 -11 -22 -12 -45 -2 -22 -7 -39 -12 -35 -5
3 -6 -5 -2 -19 8 -29 18 -102 10 -76 -8 27 -24 20 -24 -10 0 -32 -15 -61 -26
-50 -4 4 -2 13 4 19 7 7 12 24 12 39 0 15 5 31 10 34 6 3 10 13 10 21 0 8 -4
14 -10 14 -5 0 -10 -9 -10 -19 0 -11 -4 -23 -10 -26 -5 -3 -10 -17 -10 -31 0
-13 -4 -24 -10 -24 -6 0 -10 -27 -10 -60 l0 -60 38 -1 c20 0 52 -2 70 -3 17
-2 32 0 32 5 0 5 7 9 16 9 10 0 14 6 10 15 -3 10 0 14 12 13 24 -3 112 43 112
59 0 7 7 13 15 13 8 0 15 4 15 10 0 5 8 7 18 4 15 -5 15 -4 -1 6 -10 7 -29 9
-43 6 -35 -9 -30 10 6 23 17 5 30 6 30 2 0 -5 10 -11 22 -14 22 -6 46 3 70 26
7 7 30 21 51 30 36 17 53 35 21 23 -8 -3 -13 -2 -9 3 3 5 -1 11 -7 13 -7 3 1
5 19 5 18 0 30 -4 27 -9 -4 -5 3 -4 15 4 15 9 21 23 21 52 0 38 0 38 34 32 20
-4 37 -2 41 4 3 5 14 10 23 10 10 0 4 -8 -18 -21 -22 -14 -36 -17 -38 -10 -5
14 -32 15 -32 1 0 -5 5 -10 11 -10 8 0 8 -5 -1 -15 -18 -22 1 -18 40 9 19 13
46 27 59 31 24 7 24 7 -7 21 -30 12 -44 34 -22 34 6 0 10 5 10 11 0 5 -4 8 -9
5 -5 -4 -11 -1 -13 5 -2 6 -17 12 -33 13 -17 2 -45 10 -63 20 -18 9 -38 16
-45 15 -6 -1 -25 3 -41 10 -16 6 -41 14 -55 16 -14 2 -74 17 -133 33 -60 17
-108 26 -108 22z m194 -87 c-10 -7 -23 -13 -28 -12 -6 0 -5 3 2 6 6 2 12 14
12 25 0 18 2 19 16 7 14 -12 14 -14 -2 -26z m89 8 c15 -5 11 -10 -23 -25 -22
-9 -46 -15 -53 -13 -6 3 -2 6 11 6 21 1 33 21 11 21 -5 0 -7 5 -4 10 7 11 31
12 58 1z m41 -29 c2 -4 -4 -8 -15 -8 -10 0 -19 4 -19 8 0 4 6 8 14 8 8 0 17
-4 20 -8z m66 -2 c13 -9 13 -10 0 -9 -8 0 -24 4 -35 9 l-20 9 20 0 c11 0 27
-4 35 -9z m-394 -35 c4 -14 4 -29 0 -32 -3 -4 -6 3 -6 13 0 11 -5 25 -12 32
-9 9 -9 12 0 12 6 0 14 -11 18 -25z m307 -162 c4 -3 -5 -12 -20 -20 -32 -16
-44 -8 -17 12 22 16 28 18 37 8z m-88 -71 c-3 -3 -11 0 -18 7 -9 10 -8 11 6 5
10 -3 15 -9 12 -12z m-115 -53 c0 -11 -4 -17 -10 -14 -5 3 -10 13 -10 21 0 8
5 14 10 14 6 0 10 -9 10 -21z m-30 -19 c0 -5 -6 -10 -14 -10 -8 0 -18 5 -21
10 -3 6 3 10 14 10 12 0 21 -4 21 -10z m-30 -20 c0 -5 -4 -10 -10 -10 -5 0
-10 5 -10 10 0 6 5 10 10 10 6 0 10 -4 10 -10z"/>
<path d="M11770 3350 c20 -13 33 -13 25 0 -3 6 -14 10 -23 10 -15 0 -15 -2 -2
-10z"/>
<path d="M20745 3310 c-4 -6 -9 -8 -13 -6 -4 2 -23 -4 -42 -15 -27 -14 -30
-18 -14 -19 11 0 26 6 33 13 11 10 13 9 9 -3 -3 -10 -19 -15 -50 -15 -25 0
-56 -5 -69 -12 -13 -6 -48 -22 -77 -34 -42 -18 -50 -25 -35 -30 10 -4 12 -8 6
-8 -7 -1 -13 -8 -13 -16 0 -23 -18 -18 -22 7 -3 20 -4 21 -20 5 -9 -9 -20 -17
-25 -17 -15 0 -63 -25 -63 -32 0 -4 7 -5 15 -2 8 4 15 1 15 -5 0 -6 5 -11 11
-11 6 0 9 6 6 13 -3 8 6 12 24 13 39 2 37 -12 -5 -26 -25 -8 -40 -8 -58 1 -42
19 -68 -2 -66 -54 l1 -42 7 45 c8 45 5 -92 -6 -263 -4 -73 -2 -88 11 -93 10
-4 15 -19 15 -45 0 -39 0 -39 -40 -39 l-40 0 -2 -82 c-1 -46 -3 -112 -3 -148
-1 -36 -7 -141 -13 -234 -7 -93 -10 -171 -8 -173 2 -3 7 35 11 84 3 48 8 95
10 103 2 12 -2 -212 -5 -230 0 -3 -5 2 -11 10 -8 11 -9 -17 -6 -100 3 -67 2
-102 -3 -85 -5 20 -7 7 -4 -40 2 -40 1 -62 -4 -52 -5 12 -8 -3 -9 -44 -2 -60
10 -72 20 -19 3 18 5 15 6 -12 1 -29 4 -36 16 -32 8 4 12 10 9 15 -3 5 1 9 9
9 20 0 97 41 97 52 0 4 6 8 14 8 8 0 21 6 28 13 7 7 31 22 53 34 22 11 39 26
37 33 -1 6 3 8 9 5 6 -4 24 2 40 14 15 11 32 21 37 21 5 0 21 11 35 24 14 13
28 22 30 20 6 -7 21 211 20 298 0 43 3 75 7 73 9 -6 24 101 16 114 -3 5 -2 22
3 37 15 47 22 124 11 124 -6 0 -10 -17 -10 -37 0 -20 -3 -34 -6 -30 -4 3 -3
32 1 64 5 42 10 53 15 38 5 -14 9 0 13 45 3 36 10 103 16 150 16 143 22 258
10 235 -8 -18 -9 -17 -4 5 2 14 5 29 5 33 0 5 5 5 10 2 11 -7 14 40 13 205 0
61 3 84 7 65 6 -24 7 -22 4 12 -2 23 1 45 6 48 6 3 10 10 10 16 0 12 -27 12
-35 -1z m-10 -49 c-3 -6 -1 -28 4 -51 8 -35 7 -39 -5 -29 -20 17 -18 89 3 89
2 0 2 -4 -2 -9z m-99 -28 c-10 -10 -19 5 -10 18 6 11 8 11 12 0 2 -7 1 -15 -2
-18z m-26 -13 c0 -5 -13 -10 -30 -10 -30 0 -41 -14 -17 -23 6 -3 0 -6 -15 -6
-60 -2 -15 42 50 48 6 0 12 -3 12 -9z m30 -30 c0 -5 -2 -10 -4 -10 -3 0 -8 5
-11 10 -3 6 -1 10 4 10 6 0 11 -4 11 -10z m93 -152 c-5 -11 -8 10 -9 60 l-1
77 9 -59 c5 -33 6 -68 1 -78z m-416 -145 c-3 -10 -5 -2 -5 17 0 19 2 27 5 18
2 -10 2 -26 0 -35z m0 -80 c-3 -10 -5 -2 -5 17 0 19 2 27 5 18 2 -10 2 -26 0
-35z m0 -65 c-3 -7 -5 -2 -5 12 0 14 2 19 5 13 2 -7 2 -19 0 -25z m342 -210
c-1 -72 -3 -77 -8 -35 -7 45 -3 117 5 117 2 0 3 -37 3 -82z m33 42 c-2 -22 -6
-40 -8 -40 -2 0 -4 18 -4 40 0 22 3 40 8 40 4 0 6 -18 4 -40z m-24 -230 c0
-22 -1 -22 -8 5 -4 17 -8 41 -8 55 0 22 1 22 8 -5 4 -16 8 -41 8 -55z m-7 -50
c5 0 9 -12 9 -27 -1 -28 -1 -28 -15 6 -8 18 -14 41 -14 50 1 9 4 6 6 -6 2 -13
9 -23 14 -23z m-14 -87 c-3 -10 -5 -4 -5 12 0 17 2 24 5 18 2 -7 2 -21 0 -30z
m0 -105 c-3 -7 -5 -2 -5 12 0 14 2 19 5 13 2 -7 2 -19 0 -25z m-412 -385 l-6
-63 29 0 c15 0 34 -6 40 -12 10 -10 15 -10 23 2 7 11 9 11 7 1 -5 -17 -80 -43
-92 -31 -5 5 -9 71 -11 147 -1 113 0 127 7 78 5 -33 6 -88 3 -122z m308 90
c-7 -2 -19 -2 -25 0 -7 3 -2 5 12 5 14 0 19 -2 13 -5z m-43 -13 c0 -5 -4 -10
-10 -10 -5 0 -10 5 -10 10 0 6 5 10 10 10 6 0 10 -4 10 -10z m14 -35 c-4 -8
-10 -15 -15 -15 -4 0 -6 7 -3 15 4 8 10 15 15 15 4 0 6 -7 3 -15z m-49 -35
c-3 -5 -10 -10 -16 -10 -5 0 -9 5 -9 10 0 6 7 10 16 10 8 0 12 -4 9 -10z m-40
-20 c-3 -5 -12 -10 -18 -10 -7 0 -6 4 3 10 19 12 23 12 15 0z"/>
<path d="M20240 1640 c0 -5 7 -10 15 -10 8 0 15 5 15 10 0 6 -7 10 -15 10 -8
0 -15 -4 -15 -10z"/>
<path d="M22987 3305 c-16 -12 -16 -13 5 -19 36 -9 70 -7 63 4 -3 6 -18 7 -33
4 -19 -4 -23 -3 -13 4 7 5 9 12 4 15 -4 3 -16 -1 -26 -8z"/>
<path d="M7405 3245 c-15 -46 -16 -59 -6 -79 8 -15 10 -32 5 -47 -8 -22 -9
-22 -14 11 -5 33 -7 29 -26 -45 -43 -166 -56 -221 -60 -245 l-4 -25 9 25 c8
22 9 20 10 -17 1 -41 -12 -58 -22 -30 -2 6 -7 -1 -11 -18 -4 -16 -11 -43 -16
-60 -5 -16 -12 -50 -16 -75 -4 -25 -10 -49 -14 -55 -8 -10 -28 -86 -36 -140
-3 -16 -9 -39 -14 -50 -5 -11 -11 -31 -13 -45 -3 -14 -19 -76 -35 -138 -16
-63 -27 -124 -24 -135 3 -12 1 -18 -4 -14 -7 7 -36 -86 -51 -168 -3 -16 -10
-35 -15 -42 -5 -6 -10 -32 -11 -57 -1 -24 -5 -39 -9 -33 -5 8 -8 6 -8 -5 0
-10 4 -18 9 -18 5 0 28 -24 52 -52 23 -29 39 -45 36 -35 -4 11 -3 16 3 12 6
-3 10 -14 10 -24 0 -10 10 -30 23 -44 l23 -27 29 137 c21 98 30 162 29 223 -1
67 1 80 9 60 12 -31 6 -58 73 290 8 41 17 93 21 115 3 22 9 42 13 45 6 5 16
56 44 230 7 41 15 82 18 90 15 36 37 167 33 190 -4 20 -4 21 3 6 7 -15 11 -3
20 50 6 38 17 98 23 133 9 49 10 66 1 69 -7 2 -12 10 -12 18 0 8 -5 14 -11 14
-6 0 -8 -8 -4 -19 3 -11 2 -22 -4 -25 -5 -3 -8 -14 -6 -24 1 -9 0 -11 -2 -4
-5 15 -23 16 -23 1 0 -6 -6 -4 -14 4 -11 11 -12 22 -3 55 14 52 28 56 16 5
-12 -52 -11 -57 6 -39 18 18 20 80 2 94 -10 9 -17 -1 -32 -43z m85 -67 c0 -19
-2 -20 -10 -8 -13 19 -13 30 0 30 6 0 10 -10 10 -22z m-52 -58 c-14 -22 -24
-19 -15 5 4 8 11 15 17 15 6 0 6 -7 -2 -20z m42 -11 c0 -5 -4 -9 -10 -9 -5 0
-10 7 -10 16 0 8 5 12 10 9 6 -3 10 -10 10 -16z m-24 -106 c-10 -26 -18 -8 -9
23 5 21 8 24 11 11 2 -10 1 -25 -2 -34z m-99 -15 c-3 -7 -5 -2 -5 12 0 14 2
19 5 13 2 -7 2 -19 0 -25z m-5 -100 c-9 -9 -12 -7 -12 12 0 19 3 21 12 12 9
-9 9 -15 0 -24z m-5 -90 c-2 -13 -4 -3 -4 22 0 25 2 35 4 23 2 -13 2 -33 0
-45z m43 38 c0 -14 -4 -28 -10 -31 -6 -4 -10 7 -10 24 0 17 5 31 10 31 6 0 10
-11 10 -24z m10 -63 c-11 -17 -11 -17 -6 0 3 10 7 35 8 55 l1 37 4 -37 c2 -21
-1 -46 -7 -55z m-33 -25 c-3 -7 -5 -2 -5 12 0 14 2 19 5 13 2 -7 2 -19 0 -25z
m-90 -70 c-3 -8 -6 -5 -6 6 -1 11 2 17 5 13 3 -3 4 -12 1 -19z m98 -8 c-4 -12
-9 -19 -12 -17 -3 3 -2 15 2 27 4 12 9 19 12 17 3 -3 2 -15 -2 -27z m-108 -42
c-3 -8 -6 -5 -6 6 -1 11 2 17 5 13 3 -3 4 -12 1 -19z m100 -20 c-3 -8 -6 -5
-6 6 -1 11 2 17 5 13 3 -3 4 -12 1 -19z m-90 -45 c-3 -10 -5 -2 -5 17 0 19 2
27 5 18 2 -10 2 -26 0 -35z m-10 -77 c-3 -26 -4 -24 -5 12 -1 23 -6 42 -12 42
-5 0 -11 -19 -12 -42 -1 -41 -2 -42 -5 -7 -2 19 1 48 8 65 l12 29 9 -34 c5
-18 7 -47 5 -65z m25 -66 c-2 -22 -6 -40 -8 -40 -2 0 -4 18 -4 40 0 22 3 40 8
40 4 0 6 -18 4 -40z m27 -50 c-4 -8 -11 -37 -15 -65 -4 -27 -9 -44 -11 -37 -3
7 1 45 8 85 8 51 14 66 19 52 4 -11 3 -27 -1 -35z m-129 -55 c-16 -47 -23 -40
-8 8 6 20 13 35 16 33 2 -3 -1 -21 -8 -41z m-10 -73 c0 -10 -7 -27 -16 -38
-15 -18 -15 -18 -10 6 3 14 6 31 6 38 0 6 5 12 10 12 6 0 10 -8 10 -18z m17
-4 c-3 -8 -6 -5 -6 6 -1 11 2 17 5 13 3 -3 4 -12 1 -19z m90 -10 c-3 -8 -6 -5
-6 6 -1 11 2 17 5 13 3 -3 4 -12 1 -19z m-101 -86 c-12 -11 -16 6 -9 39 l8 34
3 -33 c2 -19 1 -36 -2 -40z m-30 1 c-11 -11 -17 4 -9 23 7 18 8 18 11 1 2 -10
1 -21 -2 -24z m51 -105 c-3 -8 -6 -5 -6 6 -1 11 2 17 5 13 3 -3 4 -12 1 -19z
m40 0 c-3 -8 -6 -5 -6 6 -1 11 2 17 5 13 3 -3 4 -12 1 -19z m-133 -74 c3 -9 5
-34 5 -57 -2 -34 -3 -36 -6 -12 -3 17 -9 34 -14 40 -12 12 -12 45 0 45 5 0 12
-7 15 -16z m93 -21 c-3 -10 -5 -4 -5 12 0 17 2 24 5 18 2 -7 2 -21 0 -30z
m-115 -85 c-9 -20 -11 -18 -11 22 0 40 2 42 11 23 8 -17 8 -29 0 -45z m115
-70 c-2 -18 -4 -6 -4 27 0 33 2 48 4 33 2 -15 2 -42 0 -60z m-132 42 c3 -5 -1
-10 -10 -10 -9 0 -13 5 -10 10 3 6 8 10 10 10 2 0 7 -4 10 -10z m35 -125 c20
-24 6 -28 -15 -5 -10 11 -13 20 -8 20 6 0 16 -7 23 -15z m60 -60 c0 -8 -4 -15
-10 -15 -5 0 -10 7 -10 15 0 8 5 15 10 15 6 0 10 -7 10 -15z"/>
<path d="M10701 3194 c0 -11 3 -14 6 -6 3 7 2 16 -1 19 -3 4 -6 -2 -5 -13z"/>
<path d="M21901 3174 c0 -11 3 -14 6 -6 3 7 2 16 -1 19 -3 4 -6 -2 -5 -13z"/>
<path d="M20269 3065 c-4 -22 -6 -86 -5 -142 1 -57 -2 -103 -5 -103 -4 0 -6
-27 -5 -60 2 -92 23 -77 31 23 7 95 -7 347 -16 282z"/>
<path d="M22254 3084 c3 -9 6 -21 6 -27 0 -8 3 -8 11 0 13 13 5 43 -12 43 -6
0 -8 -7 -5 -16z"/>
<path d="M20185 3037 c-60 -35 -123 -78 -142 -96 -12 -12 -25 -21 -29 -21 -3
0 -23 -13 -44 -30 -21 -16 -43 -30 -50 -30 -7 0 -9 -8 -5 -19 9 -29 -30 -65
-62 -56 -16 4 -22 2 -18 -4 4 -7 0 -8 -11 -4 -13 5 -15 2 -9 -18 5 -18 4 -20
-4 -9 -8 12 -13 12 -23 2 -10 -10 -10 -15 2 -22 8 -5 11 -12 7 -17 -5 -4 -12
-1 -17 7 -7 12 -12 11 -30 -5 -20 -18 -22 -27 -16 -85 4 -41 3 -60 -3 -51 -6
9 -8 -27 -6 -95 2 -74 1 -96 -5 -69 l-8 40 3 -49 c1 -27 8 -52 16 -56 11 -7
13 -61 14 -267 0 -142 -2 -278 -5 -303 -3 -25 -7 56 -7 180 -1 124 -6 261 -12
305 l-10 80 3 -122 c1 -68 -1 -117 -6 -110 -5 7 -8 0 -8 -20 0 -17 4 -33 10
-35 5 -2 6 -17 1 -38 -4 -19 -4 -46 0 -60 4 -14 7 -52 6 -85 l0 -60 -6 62
c-10 103 -21 82 -15 -31 2 -58 1 -106 -4 -106 -5 0 -12 -102 -16 -227 -3 -126
-8 -243 -11 -261 -4 -30 -3 -31 17 -21 15 8 17 13 8 19 -8 5 2 8 25 8 21 0 40
4 44 9 8 13 147 103 195 128 21 11 41 27 43 36 3 9 12 15 21 13 10 -2 26 3 36
11 20 15 20 15 0 30 -18 14 -18 15 6 12 l25 -2 0 140 c0 76 2 130 5 120 3 -11
8 16 11 60 3 44 4 -8 1 -115 -2 -107 -8 -199 -13 -205 -15 -16 -10 -28 6 -15
11 9 15 34 16 89 1 48 4 67 8 51 l7 -25 8 30 c5 19 4 31 -3 33 -6 2 -11 22
-10 45 1 35 2 38 8 17 5 -17 7 -4 7 37 -1 35 -4 63 -8 63 -5 0 -8 19 -7 43 l1
42 13 -30 c12 -28 13 -26 11 38 -1 44 -5 67 -13 67 -6 0 -14 -8 -16 -17 -2
-10 -3 -5 -1 11 2 16 4 41 4 57 0 22 5 29 20 29 19 0 20 8 23 123 1 67 2 167
1 222 -1 64 2 87 6 65 8 -36 12 22 16 210 3 99 13 296 19 338 2 17 3 32 2 31
-1 0 -11 -5 -22 -12z m-31 -52 c-4 -8 -12 -15 -20 -15 -20 0 -17 18 4 23 9 3
18 5 19 6 1 0 0 -6 -3 -14z m12 -42 c-11 -11 -17 4 -9 23 7 18 8 18 11 1 2
-10 1 -21 -2 -24z m-60 12 c17 -16 14 -18 -10 -9 -9 3 -16 10 -16 15 0 13 9
11 26 -6z m-26 -30 c0 -8 -4 -15 -10 -15 -5 0 -10 7 -10 15 0 8 5 15 10 15 6
0 10 -7 10 -15z m97 -130 l-14 -100 0 115 c0 72 3 102 7 80 l7 -35 3 45 c2 26
5 34 7 20 2 -14 -3 -70 -10 -125z m-127 96 c0 -14 -37 -24 -52 -15 -9 6 -5 10
12 15 36 10 40 10 40 0z m-292 -321 c-1 -28 -2 -25 -8 15 -5 28 -8 66 -8 85 1
28 2 25 8 -15 5 -27 8 -66 8 -85z m419 58 c-3 -7 -5 -2 -5 12 0 14 2 19 5 13
2 -7 2 -19 0 -25z m-418 -180 c-1 -7 -5 -24 -9 -38 -7 -22 -8 -21 -9 13 -1 20
4 37 9 37 6 0 10 -6 9 -12z m-2 -100 c-3 -7 -5 -2 -5 12 0 14 2 19 5 13 2 -7
2 -19 0 -25z m0 -400 c-3 -7 -5 -2 -5 12 0 14 2 19 5 13 2 -7 2 -19 0 -25z
m330 -40 c-3 -7 -5 -2 -5 12 0 14 2 19 5 13 2 -7 2 -19 0 -25z m0 -80 c-3 -7
-5 -2 -5 12 0 14 2 19 5 13 2 -7 2 -19 0 -25z m-52 -366 c-9 -9 -35 8 -35 24
0 16 2 16 20 -1 11 -10 18 -20 15 -23z m-97 -60 c-7 -7 -14 -9 -17 -4 -3 5
-15 12 -26 15 -11 3 -4 4 17 3 28 -1 34 -4 26 -14z m-88 -57 c-7 -8 -18 -15
-24 -14 -7 0 -6 2 2 6 6 2 12 14 12 26 0 16 3 18 12 9 8 -8 8 -15 -2 -27z
m-47 -15 c8 0 8 -3 0 -11 -9 -9 -16 -7 -30 7 -17 17 -17 18 0 11 10 -4 24 -7
30 -7z"/>
<path d="M22279 2918 c-13 -40 -28 -76 -34 -80 -6 -5 -6 -8 0 -8 5 0 4 -5 -3
-12 -21 -21 -13 -27 19 -11 16 8 35 24 42 34 13 21 33 27 21 7 -4 -7 1 -6 12
3 10 9 38 26 62 38 47 24 53 33 20 30 -13 -1 -45 -1 -72 -1 l-48 2 6 35 c11
55 1 41 -25 -37z m40 -35 c0 -11 -3 -13 -6 -5 -7 17 -23 5 -23 -18 0 -10 -5
-22 -10 -25 -10 -6 -4 37 7 58 8 14 33 7 32 -10z m36 7 c-3 -5 -10 -10 -16
-10 -5 0 -9 5 -9 10 0 6 7 10 16 10 8 0 12 -4 9 -10z"/>
<path d="M19870 2815 c-28 -30 -9 -34 20 -5 11 11 20 22 20 25 0 12 -18 3 -40
-20z"/>
<path d="M22105 2730 c-3 -5 1 -10 9 -10 8 0 18 5 21 10 3 6 -1 10 -9 10 -8 0
-18 -4 -21 -10z"/>
<path d="M21691 2664 c0 -11 3 -14 6 -6 3 7 2 16 -1 19 -3 4 -6 -2 -5 -13z"/>
<path d="M19567 2542 c-31 -32 -32 -38 -13 -58 19 -18 36 -18 36 1 0 8 -7 15
-15 15 -21 0 -19 10 7 37 12 13 19 25 16 28 -2 3 -17 -8 -31 -23z"/>
<path d="M21727 2557 c-4 -10 -7 -26 -7 -35 1 -15 2 -15 11 1 6 10 9 25 7 35
-3 16 -4 15 -11 -1z"/>
<path d="M21251 2461 c-1 -32 2 -42 10 -34 7 7 7 21 1 44 l-10 34 -1 -44z"/>
<path d="M21170 2423 c0 -43 5 -41 13 5 4 18 2 32 -3 32 -6 0 -10 -16 -10 -37z"/>
<path d="M21242 2390 c0 -14 2 -19 5 -12 2 6 2 18 0 25 -3 6 -5 1 -5 -13z"/>
<path d="M19733 2260 c0 -25 2 -35 4 -22 2 12 2 32 0 45 -2 12 -4 2 -4 -23z"/>
<path d="M21365 2270 c-3 -5 -15 -10 -26 -10 -10 0 -19 -5 -19 -11 0 -6 9 -8
23 -4 26 8 57 35 40 35 -7 0 -15 -4 -18 -10z"/>
<path d="M20122 1550 c0 -19 2 -27 5 -17 2 9 2 25 0 35 -3 9 -5 1 -5 -18z"/>
<path d="M7371 1504 c0 -11 3 -14 6 -6 3 7 2 16 -1 19 -3 4 -6 -2 -5 -13z"/>
<path d="M7325 1399 c-4 -12 -2 -26 3 -31 8 -8 10 -1 10 21 -1 36 -4 39 -13
10z"/>
<path d="M7403 1363 c-12 -36 -18 -65 -12 -68 5 -4 9 0 10 7 0 7 5 -2 10 -20
6 -20 14 -30 21 -26 7 5 8 3 3 -6 -5 -8 -2 -17 7 -24 8 -6 20 -21 27 -34 8
-16 20 -22 34 -20 20 3 22 9 25 86 l3 82 -45 0 c-26 0 -47 5 -50 13 -3 6 -4
-6 -2 -28 2 -22 1 -32 -1 -22 -2 9 -9 17 -14 17 -13 0 -11 34 2 47 6 6 9 21 7
34 -3 18 -9 9 -25 -38z m85 -129 c22 -15 31 -54 12 -54 -5 0 -10 7 -10 15 0 8
-9 24 -20 35 -24 24 -14 26 18 4z"/>
<path d="M7551 1380 c-3 -40 -4 -42 -12 -20 -7 21 -8 20 -4 -9 3 -18 5 -68 5
-109 0 -52 3 -73 10 -66 7 7 9 57 7 130 -1 65 -4 99 -6 74z"/>
</g>
</svg>
